<svg version="1.1" xmlns="http://www.w3.org/2000/svg" width="50mm" height="50mm" viewBox="0 0 50 50">
  <style>
  <![CDATA[
    rect, circle, ellipse, line, polyline, polygon, path { stroke-width: 0.5; stroke: black; }
    rect, circle, ellipse, polygon { fill: white; }
    line, polyline, path { fill: none; }
  ]]>
  </style>
  <style>
    <![CDATA[
    * {
        stroke-width: 0.5;
        rect, circle, ellipse, polygon { fill: none; }
    }
    rect { stroke: blue; }
    circle { stroke: red; }
    ellipse { stroke: green; }
    ]]>
  </style>
  <rect x="24" y="24" width="2" height="2"/>
  <rect x="23" y="23" width="4" height="4"/>
  <rect x="22" y="22" width="6" height="6"/>
  <rect x="21" y="21" width="8" height="8"/>
  <rect x="19" y="19" width="12" height="12"/>
  <rect x="17" y="17" width="16" height="16"/>
  <rect x="15" y="15" width="20" height="20"/>
  <circle cx="25" cy="25" r="1"/>
  <circle cx="25" cy="25" r="2"/>
  <circle cx="25" cy="25" r="3"/>
  <circle cx="25" cy="25" r="4"/>
  <circle cx="25" cy="25" r="6"/>
  <circle cx="25" cy="25" r="8"/>
  <circle cx="25" cy="25" r="10"/>
  <circle cx="25" cy="25" r="20"/>
  <ellipse cx="10" cy="25" rx="2" ry="4"/>
  <ellipse cx="10" cy="25" rx="4" ry="6"/>
  <ellipse cx="40" cy="25" rx="2" ry="4"/>
  <ellipse cx="40" cy="25" rx="4" ry="6"/>
  <ellipse cx="25" cy="10" rx="4" ry="2"/>
  <ellipse cx="25" cy="10" rx="6" ry="4"/>
  <ellipse cx="25" cy="40" rx="4" ry="2"/>
  <ellipse cx="25" cy="40" rx="6" ry="4"/>
</svg>
