<svg version="1.1" xmlns="http://www.w3.org/2000/svg" width="85mm" height="115mm" viewBox="-15 -15 85 115">
  <style>
    rect, circle, ellipse, line, polyline, polygon, path { stroke-width: 0.5; stroke: black; }
    rect, circle, ellipse, polygon { fill: white; }
    line, polyline, path { fill: none; }
    text { font-family: sans-serif; font-size: 3px; }
    text.d-tbox, text.d-tbox * { text-anchor: middle; dominant-baseline: central; }
    .d-surround { fill: none; }
    .d-fill-grey { fill: grey; }
    text.d-fill-grey, text.d-fill-grey * { fill: white; }
    .d-fill-white { fill: white; }
    text.d-fill-white, text.d-fill-white * { fill: black; }
  </style>
  <rect x="-10" y="-10" width="75" height="105" class="d-fill-white d-surround"/><rect id="o2" opacity="0.4" x="-8" y="-8" width="71" height="54" class="d-fill-grey d-surround"/><rect id="o3" opacity="0.4" x="-3" y="-3" width="26" height="44" class="d-fill-grey d-surround"/><rect id="o4" opacity="0.4" x="32" y="-3" width="26" height="44" class="d-fill-grey d-surround"/><rect id="o5" opacity="0.4" x="14.5" y="49" width="26" height="44" class="d-fill-grey d-surround"/><rect id="inp" width="20" height="8"/>
  <text x="10" y="4" class="d-tbox">input</text>
  <rect id="proc1" x="0" y="10" width="20" height="8"/>
  <text x="10" y="14" class="d-tbox">process 1</text>
  <rect id="proc2" x="0" y="20" width="20" height="8"/>
  <text x="10" y="24" class="d-tbox">process 2</text>
  <rect id="out" x="0" y="30" width="20" height="8"/>
  <text x="10" y="34" class="d-tbox">out</text>

  <rect id="xinp" x="35" y="0" width="20" height="8"/>
  <text x="45" y="4" class="d-tbox">input</text>
  <rect id="xproc1" x="35" y="10" width="20" height="8"/>
  <text x="45" y="14" class="d-tbox">process 1</text>
  <rect id="xproc2" x="35" y="20" width="20" height="8"/>
  <text x="45" y="24" class="d-tbox">process 2</text>
  <rect id="xout" x="35" y="30" width="20" height="8"/>
  <text x="45" y="34" class="d-tbox">out</text>

  <rect id="yinp" x="17.5" y="52" width="20" height="8"/>
<text x="27.5" y="56" class="d-tbox">input</text><rect id="yproc1" x="17.5" y="62" width="20" height="8"/>
<text x="27.5" y="66" class="d-tbox">process 1</text><rect id="yproc2" x="17.5" y="72" width="20" height="8"/>
<text x="27.5" y="76" class="d-tbox">process 2</text><rect id="yout" x="17.5" y="82" width="20" height="8"/>
<text x="27.5" y="86" class="d-tbox">out</text></svg>
