<svg version="1.1" xmlns="http://www.w3.org/2000/svg" width="85mm" height="121mm" viewBox="-15 -15 85 121">
  <style>
  <![CDATA[
    rect, circle, ellipse, line, polyline, polygon, path { stroke-width: 0.5; stroke: black; }
    rect, circle, ellipse, polygon { fill: white; }
    line, polyline, path { fill: none; }
    text { font-family: sans-serif; font-size: 3px; }
    text.d-tbox, text.d-tbox * { text-anchor: middle; dominant-baseline: central; }
    .d-dash { stroke-dasharray: 1.5 0.75; }
    .d-surround { fill: none; }
    .d-none { stroke: none; }
    text.d-none, text.d-none * { stroke: none; }
    .d-fill-grey { fill: grey; }
    text.d-fill-grey, text.d-fill-grey * { fill: white; }
    .d-fill-white { fill: white; }
    text.d-fill-white, text.d-fill-white * { fill: black; }
  ]]>
  </style>
  <rect x="-10" y="-10" width="75" height="111" class="d-fill-white d-surround"/><rect id="o2" opacity="0.4" x="-8" y="-8" width="71" height="70" class="d-fill-grey d-surround"/><rect id="o3" opacity="0.4" x="-3" y="-3" width="26" height="60" class="d-fill-grey d-dash d-surround"/><rect id="o4" opacity="0.4" x="32" y="-3" width="26" height="44" class="d-fill-grey d-surround"/><rect id="o5" opacity="0.4" x="14.5" y="65" width="48" height="34" class="d-fill-grey d-surround"/><rect id="inp" width="20" height="8"/>
  <text x="10" y="4" class="d-tbox">input</text>
  <rect id="proc1" x="0" y="10" width="20" height="8"/>
  <text x="10" y="14" class="d-tbox">process 1</text>
  <rect id="proc2" x="0" y="20" width="20" height="16"/>
  <text x="10" y="28" class="d-tbox">process 2</text>
  <rect id="out" x="0" y="38" width="20" height="16"/>
  <text x="10" y="46" class="d-tbox">out</text>

  <rect id="xinp" x="35" y="0" width="20" height="8"/>
  <text x="45" y="4" class="d-tbox">input</text>
  <rect id="xproc1" x="35" y="10" width="20" height="8"/>
  <text x="45" y="14" class="d-tbox">process 1</text>
  <rect id="xproc2" x="35" y="20" width="20" height="8"/>
  <text x="45" y="24" class="d-tbox">process 2</text>
  <rect id="xout" x="35" y="30" width="20" height="8"/>
  <text x="45" y="34" class="d-tbox">out</text>

  <rect id="yinp" x="17.5" y="68" width="20" height="8"/>
<text x="27.5" y="72" class="d-tbox">input</text><rect id="yproc1" x="39.5" y="68" width="20" height="8"/>
<text x="49.5" y="72" class="d-tbox">preprocess</text><rect id="group" x="17.5" y="68" width="42" height="8" class="d-none d-surround"/><rect id="yproc2" x="17.5" y="78" width="42" height="8"/>
<text x="38.5" y="82" class="d-tbox">process 2</text><rect id="yout" x="17.5" y="88" width="42" height="8"/>
<text x="38.5" y="92" class="d-tbox">out</text><line x1="23" y1="19" x2="32" y2="19"/><polyline points="20 46, 27.5 46, 27.5 68"/></svg>
