<svg version="1.1" xmlns="http://www.w3.org/2000/svg" width="210mm" height="210mm" viewBox="-5 -5 210 210">
  <style>
    <![CDATA[
      rect, circle, ellipse, polygon { stroke-width: 0.5; fill: white; stroke: black; }
      line, polyline, path { stroke-width: 0.5; fill: none; stroke: black; }
    ]]>
  </style>
  <rect id="i1" width="200" height="200"/>

    <line x1="200" y1="0" x2="200" y2="200"/>
    <line x1="0" y1="0" x2="0" y2="200"/>

    <line x1="200" y1="5" x2="195" y2="200"/>
    <line x1="5" y1="0" x2="0" y2="195"/>

    <line x1="200" y1="10" x2="190" y2="200"/>
    <line x1="10" y1="0" x2="0" y2="190"/>

    <line x1="200" y1="15" x2="185" y2="200"/>
    <line x1="15" y1="0" x2="0" y2="185"/>

    <line x1="200" y1="20" x2="180" y2="200"/>
    <line x1="20" y1="0" x2="0" y2="180"/>

    <line x1="200" y1="25" x2="175" y2="200"/>
    <line x1="25" y1="0" x2="0" y2="175"/>

    <line x1="200" y1="30" x2="170" y2="200"/>
    <line x1="30" y1="0" x2="0" y2="170"/>

    <line x1="200" y1="35" x2="165" y2="200"/>
    <line x1="35" y1="0" x2="0" y2="165"/>

    <line x1="200" y1="40" x2="160" y2="200"/>
    <line x1="40" y1="0" x2="0" y2="160"/>

    <line x1="200" y1="45" x2="155" y2="200"/>
    <line x1="45" y1="0" x2="0" y2="155"/>

    <line x1="200" y1="50" x2="150" y2="200"/>
    <line x1="50" y1="0" x2="0" y2="150"/>

    <line x1="200" y1="55" x2="145" y2="200"/>
    <line x1="55" y1="0" x2="0" y2="145"/>

    <line x1="200" y1="60" x2="140" y2="200"/>
    <line x1="60" y1="0" x2="0" y2="140"/>

    <line x1="200" y1="65" x2="135" y2="200"/>
    <line x1="65" y1="0" x2="0" y2="135"/>

    <line x1="200" y1="70" x2="130" y2="200"/>
    <line x1="70" y1="0" x2="0" y2="130"/>

    <line x1="200" y1="75" x2="125" y2="200"/>
    <line x1="75" y1="0" x2="0" y2="125"/>

    <line x1="200" y1="80" x2="120" y2="200"/>
    <line x1="80" y1="0" x2="0" y2="120"/>

    <line x1="200" y1="85" x2="115" y2="200"/>
    <line x1="85" y1="0" x2="0" y2="115"/>

    <line x1="200" y1="90" x2="110" y2="200"/>
    <line x1="90" y1="0" x2="0" y2="110"/>

    <line x1="200" y1="95" x2="105" y2="200"/>
    <line x1="95" y1="0" x2="0" y2="105"/>

    <line x1="200" y1="100" x2="100" y2="200"/>
    <line x1="100" y1="0" x2="0" y2="100"/>

    <line x1="200" y1="105" x2="95" y2="200"/>
    <line x1="105" y1="0" x2="0" y2="95"/>

    <line x1="200" y1="110" x2="90" y2="200"/>
    <line x1="110" y1="0" x2="0" y2="90"/>

    <line x1="200" y1="115" x2="85" y2="200"/>
    <line x1="115" y1="0" x2="0" y2="85"/>

    <line x1="200" y1="120" x2="80" y2="200"/>
    <line x1="120" y1="0" x2="0" y2="80"/>

    <line x1="200" y1="125" x2="75" y2="200"/>
    <line x1="125" y1="0" x2="0" y2="75"/>

    <line x1="200" y1="130" x2="70" y2="200"/>
    <line x1="130" y1="0" x2="0" y2="70"/>

    <line x1="200" y1="135" x2="65" y2="200"/>
    <line x1="135" y1="0" x2="0" y2="65"/>

    <line x1="200" y1="140" x2="60" y2="200"/>
    <line x1="140" y1="0" x2="0" y2="60"/>

    <line x1="200" y1="145" x2="55" y2="200"/>
    <line x1="145" y1="0" x2="0" y2="55"/>

    <line x1="200" y1="150" x2="50" y2="200"/>
    <line x1="150" y1="0" x2="0" y2="50"/>

    <line x1="200" y1="155" x2="45" y2="200"/>
    <line x1="155" y1="0" x2="0" y2="45"/>

    <line x1="200" y1="160" x2="40" y2="200"/>
    <line x1="160" y1="0" x2="0" y2="40"/>

    <line x1="200" y1="165" x2="35" y2="200"/>
    <line x1="165" y1="0" x2="0" y2="35"/>

    <line x1="200" y1="170" x2="30" y2="200"/>
    <line x1="170" y1="0" x2="0" y2="30"/>

    <line x1="200" y1="175" x2="25" y2="200"/>
    <line x1="175" y1="0" x2="0" y2="25"/>

    <line x1="200" y1="180" x2="20" y2="200"/>
    <line x1="180" y1="0" x2="0" y2="20"/>

    <line x1="200" y1="185" x2="15" y2="200"/>
    <line x1="185" y1="0" x2="0" y2="15"/>

    <line x1="200" y1="190" x2="10" y2="200"/>
    <line x1="190" y1="0" x2="0" y2="10"/>

    <line x1="200" y1="195" x2="5" y2="200"/>
    <line x1="195" y1="0" x2="0" y2="5"/>

</svg>
