<svg version="1.1" xmlns="http://www.w3.org/2000/svg" width="70mm" height="20mm" viewBox="-5 -5 70 20">
  <style>
  <![CDATA[
    svg { background: none; }
    svg * { stroke-linecap: round; stroke-linejoin: round; }
    rect, circle, ellipse, polygon { stroke-width: 0.5; fill: white; stroke: black; }
    line, polyline, path { stroke-width: 0.5; fill: none; stroke: black; }
    text, tspan { stroke-width: 0; font-family: sans-serif; font-size: 3px; fill: black; paint-order: stroke; stroke: white; }
    .d-fill-crimson { fill: crimson; }
    text.d-fill-crimson, text.d-fill-crimson * { fill: white; stroke: black; }
    .d-none { stroke: none; }
  ]]>
  </style>
  <style>svg * {stroke-width: 0.2px;}</style>
  <!-- TODO: bbox for reuse + x so this isn't needed -->
  <rect width="60" height="10" class="d-none"/>

    <g transform="translate(0, 0)" class="dice">
      <!-- dice value: 1 -->
      <rect id="base" x="0" y="0" width="10" height="10" rx="1" class="d-fill-crimson"/>

        <circle cx="5" cy="5" r="1"/>

      </g>

    <g transform="translate(12, 0)" class="dice">
      <!-- dice value: 1 -->
      <rect id="base" x="0" y="0" width="10" height="10" rx="1" class="d-fill-crimson"/>

        <circle cx="5" cy="5" r="1"/>

      </g>

    <g transform="translate(24, 0)" class="dice">
      <!-- dice value: 2 -->
      <rect id="base" x="0" y="0" width="10" height="10" rx="1" class="d-fill-crimson"/>

        <circle cx="2.5" cy="2.5" r="1"/>
        <circle cx="7.5" cy="7.5" r="1"/>

      </g>

    <g transform="translate(36, 0)" class="dice">
      <!-- dice value: 2 -->
      <rect id="base" x="0" y="0" width="10" height="10" rx="1" class="d-fill-crimson"/>

        <circle cx="2.5" cy="2.5" r="1"/>
        <circle cx="7.5" cy="7.5" r="1"/>

      </g>

    <g transform="translate(48, 0)" class="dice">
      <!-- dice value: 3 -->
      <rect id="base" x="0" y="0" width="10" height="10" rx="1" class="d-fill-crimson"/>

        <circle cx="5" cy="5" r="1"/>


        <circle cx="2.5" cy="2.5" r="1"/>
        <circle cx="7.5" cy="7.5" r="1"/>

      </g>

</svg>
