<svg version="1.1" xmlns="http://www.w3.org/2000/svg" width="77mm" height="82.5mm" viewBox="-33.5 -18.75 77 82.5">
    <defs>
      <marker id="arrow" refX="1" refY="0.5" orient="auto-start-reverse" markerWidth="5" markerHeight="5" viewBox="0 0 1 1">
        <path d="M 0 0 1 0.5 0 1" style="stroke-width: 0.2;"/>
      </marker>
      <pattern id="grid" patternUnits="userSpaceOnUse" width="1" height="1" viewBox="0,0,5,5">
        <line x1="0" y1="0" x2="5" y2="0"/>
        <line x1="0" y1="0" x2="0" y2="5"/>
      </pattern>
    </defs>
    <style>
        <![CDATA[
            rect { fill: white; stroke: black; stroke-width: 0.1px; }
            rect.background-grid { fill: url(#grid); stroke: none; }
            line, polyline { stroke-width: 0.2px; stroke: black; fill: none; }
            text { font-size: 3px; dominant-baseline: central; text-anchor: middle; }
        ]]>
    </style>

    <rect x="-20" y="-5" width="50" height="55" class="background-grid"/>
    <rect x="0" y="0" width="10" height="30" id="base"/>
    <text x="5" y="15" class="tbox">base</text>
    <rect x="15" y="0" width="10" height="5" id="a"/>
    <text x="20" y="2.5" class="tbox">a</text>
    <rect x="15" y="10" width="10" height="5" id="b"/>
    <text x="20" y="12.5" class="tbox">b</text>
    <rect x="15" y="25" width="10" height="5" id="c"/>
    <text x="20" y="27.5" class="tbox">c</text>
    <rect x="5" y="40" width="20" height="5" id="d"/>
    <text x="15" y="42.5" class="tbox">d</text>
    <rect x="-15" y="15" width="10" height="30" id="e"/>
    <text x="-10" y="30" class="tbox">e</text>
    <rect x="-15" y="7.5" width="10" height="5" id="f"/>
    <text x="-10" y="10" class="tbox">f</text>
    <line x1="10" y1="2.5" x2="15" y2="2.5" marker-end="url(#arrow)"/>
    <line x1="10" y1="12.5" x2="15" y2="12.5" marker-end="url(#arrow)"/>
    <line x1="10" y1="27.5" x2="15" y2="27.5" marker-end="url(#arrow)"/>
    <line x1="7.5" y1="30" x2="7.5" y2="40" marker-end="url(#arrow)"/>
    <line x1="0" y1="22.5" x2="-5" y2="22.5" marker-end="url(#arrow)"/>
    <line x1="0" y1="10" x2="-5" y2="10" marker-end="url(#arrow)"/>
</svg>
