<svg version="1.1" xmlns="http://www.w3.org/2000/svg" width="61mm" height="58mm" viewBox="-10 -33 61 58">
  <defs>
    <marker id="d-arrow" refX="1" refY="0.5" orient="auto-start-reverse" markerWidth="6" markerHeight="5" viewBox="0 0 1 1">
      <path d="M 0 0 1 0.4 1 0.6 0 1" style="stroke: none; fill: context-stroke;"/>
    </marker>
  </defs>
  <style>
    <![CDATA[
      rect, circle, ellipse, polygon { stroke-width: 0.5; fill: white; stroke: black; }
      text { stroke-width: 0; font-family: sans-serif; font-size: 3px; fill: black; stroke: white; }
      line, polyline, path { stroke-width: 0.5; fill: none; stroke: black; }
      .d-fill-whitesmoke { fill: whitesmoke; }
      .d-fill-green { fill: green; }
      text.d-fill-green, tspan.d-fill-green { fill: white; stroke: black; }
      .d-fill-lightgrey { fill: lightgrey; }
      text.d-fill-lightgrey, tspan.d-fill-lightgrey { fill: black; stroke: white; }
      .d-fill-grey { fill: grey; }
      text.d-fill-grey, tspan.d-fill-grey { fill: white; stroke: black; }
      .d-fill-red { fill: red; }
      text.d-fill-red, tspan.d-fill-red { fill: white; stroke: black; }
      .d-fill-darkmagenta { fill: darkmagenta; }
      text.d-fill-darkmagenta, tspan.d-fill-darkmagenta { fill: white; stroke: black; }
      .d-blue { stroke: blue; }
      .d-thin { stroke-width: 0.25; }
      text { stroke-linejoin: round; paint-order: stroke; }
      text.d-text, tspan.d-text { text-anchor: middle; dominant-baseline: central; }
      marker path { fill: inherit; }
      line.d-arrow, polyline.d-arrow, path.d-arrow { marker-end: url(#d-arrow); }
      .d-dash { stroke-dasharray: 1 1.5; }
      .d-dot { stroke-linecap: round; stroke-dasharray: 0 1; }
    ]]>
  </style>
  <rect id="base" width="40" height="20" class="d-fill-whitesmoke"/>
  <rect id="in" x="-5" y="7.5" width="10" height="5" class="d-fill-green"/>
  <text x="0" y="10" class="d-text d-fill-green">in</text>
  <rect id="send" x="7" y="-2.5" width="10" height="5" class="d-fill-lightgrey"/>
  <text x="12" y="0" class="d-text d-fill-lightgrey">send</text>
  <rect id="return" x="23" y="-2.5" width="10" height="5" class="d-fill-grey"/>
  <text x="28" y="0" class="d-text d-fill-grey">return</text>
  <rect id="out" x="35" y="7.5" width="10" height="5" class="d-fill-red"/>
  <text x="40" y="10" class="d-text d-fill-red">out</text>

  <rect id="effect" x="10" y="-28" width="20" height="8" class="d-fill-darkmagenta"/>
  <text x="20" y="-24" class="d-text d-fill-darkmagenta">effect</text>

  <line x1="13.5" y1="-2.5" x2="13.5" y2="-20" class="d-arrow d-dash"/>
  <line x1="26.5" y1="-20" x2="26.5" y2="-2.5" class="d-arrow d-dash"/>

  <polyline points="-5 10, 5 10, 12 2.5, 12 -2.5, 20 -24, 28 -2.5, 28 2.5, 35 10, 45 10" transform="translate(1, 3)" class="d-arrow d-hardshadow d-blue d-thin"/>

  <!-- TODO: get the following using refspec... -->
  <path d="M -4 13
  L 6 13
  C 13 13 13 13 13 5.5
  L 13 0.5
  C 13 -21 13 -21 21 -21
  C 29 -21 29 -21 29 0.5
  L 29 5.5
  C 29 13 29 13 36 13
  L 46 13
  " class="d-arrow d-hardshadow d-blue d-dot"/>
</svg>
