<svg version="1.1" xmlns="http://www.w3.org/2000/svg" width="61mm" height="58mm" viewBox="-10 -33 61 58">
  <defs>
    <marker id="d-arrow" refX="0.8" refY="0.5" orient="auto-start-reverse" markerWidth="6" markerHeight="5" viewBox="0 0 0.4 1">
      <path d="M 0 0 1 0.5 0 1" style="stroke: none; fill: context-stroke;"/>
    </marker>
    <filter id="d-hardshadow" x="-50%" y="-50%" width="200%" height="200%">
      <feGaussianBlur in="SourceAlpha" stdDeviation="0.2"/>
      <feOffset dx="1" dy="1"/>
      <feComposite in2="SourceGraphic" operator="arithmetic" k1="0" k2="0.6" k3="1" k4="0"/>
    </filter>
  </defs>
  <style>
  <![CDATA[
    rect, circle, ellipse, line, polyline, polygon, path { stroke-width: 0.5; stroke: black; }
    rect, circle, ellipse, polygon { fill: white; }
    line, polyline, path { fill: none; }
    text { font-family: sans-serif; font-size: 3px; }
    .d-thin { stroke-width: 0.25; }
    text.d-tbox, text.d-tbox * { text-anchor: middle; dominant-baseline: central; }
    .d-hardshadow:not(text,tspan) { filter: url(#d-hardshadow); }
    line.d-arrow, polyline.d-arrow, path.d-arrow { marker-end: url(#d-arrow); }
    marker path { fill: inherit; }
    .d-dash { stroke-dasharray: 1.5 0.5; }
    .d-dot { stroke-dasharray: 0.5 0.5; }
    .d-fill-darkmagenta:not(text,tspan) { fill: darkmagenta; }
    text.d-fill-darkmagenta, text.d-fill-darkmagenta * { fill: white; }
    .d-fill-grey:not(text,tspan) { fill: grey; }
    text.d-fill-grey, text.d-fill-grey * { fill: white; }
    .d-fill-green:not(text,tspan) { fill: green; }
    text.d-fill-green, text.d-fill-green * { fill: white; }
    .d-fill-lightgrey:not(text,tspan) { fill: lightgrey; }
    text.d-fill-lightgrey, text.d-fill-lightgrey * { fill: black; }
    .d-fill-red:not(text,tspan) { fill: red; }
    text.d-fill-red, text.d-fill-red * { fill: white; }
    .d-fill-whitesmoke:not(text,tspan) { fill: whitesmoke; }
    text.d-fill-whitesmoke, text.d-fill-whitesmoke * { fill: black; }
    .d-blue:not(text,tspan) { stroke: blue; }
    text.d-blue, text.d-blue * { fill: blue; }
  ]]>
  </style>
  <rect id="base" width="40" height="20" class="d-fill-whitesmoke"/>
  <rect id="in" x="-5" y="7.5" width="10" height="5" class="d-fill-green"/>
  <text x="0" y="10" class="d-fill-green d-tbox">in</text>
  <rect id="send" x="7" y="-2.5" width="10" height="5" class="d-fill-lightgrey"/>
  <text x="12" y="0" class="d-fill-lightgrey d-tbox">send</text>
  <rect id="return" x="23" y="-2.5" width="10" height="5" class="d-fill-grey"/>
  <text x="28" y="0" class="d-fill-grey d-tbox">return</text>
  <rect id="out" x="35" y="7.5" width="10" height="5" class="d-fill-red"/>
  <text x="40" y="10" class="d-fill-red d-tbox">out</text>

  <rect id="effect" x="10" y="-28" width="20" height="8" class="d-fill-darkmagenta"/>
  <text x="20" y="-24" class="d-fill-darkmagenta d-tbox">effect</text>

  <line x1="13.5" y1="-2.5" x2="13.5" y2="-20" class="d-arrow d-dash"/>
  <line x1="26.5" y1="-20" x2="26.5" y2="-2.5" class="d-arrow d-dash"/>

  <polyline points="-4 13 6 13 13 5.5 13 0.5 21 -21 29 0.5 29 5.5 36 13 46 13" class="d-arrow d-hardshadow d-blue d-thin"/>

  <!-- TODO: get the following using refspec... -->
  <path d="M -4 13
  L 6 13
  C 13 13 13 13 13 5.5
  L 13 0.5
  C 13 -21 13 -21 21 -21
  C 29 -21 29 -21 29 0.5
  L 29 5.5
  C 29 13 29 13 36 13
  L 46 13
  " class="d-arrow d-hardshadow d-blue d-dot"/>
</svg>
