<svg version="1.1" xmlns="http://www.w3.org/2000/svg" width="190mm" height="94mm" viewBox="-39 -25 190 94">
  <defs>
    <marker id="d-arrow" refX="1" refY="0.5" orient="auto-start-reverse" markerWidth="6" markerHeight="5" viewBox="0 0 1 1">
      <path d="M 0 0 1 0.4 1 0.6 0 1" style="stroke: none; fill: context-stroke;"/>
    </marker>
  </defs>
  <style>
    <![CDATA[
      svg { background: white; }
      rect, circle, ellipse, polygon { stroke-width: 0.5; fill: white; stroke: black; }
      text { stroke-width: 0; font-family: sans-serif; font-size: 3px; fill: black; stroke: white; }
      line, polyline, path { stroke-width: 0.5; fill: none; stroke: black; }
      .d-none { stroke: none; }
      .d-fill-black { fill: black; }
      text { stroke-linejoin: round; paint-order: stroke; }
      text.d-text, tspan.d-text { text-anchor: middle; dominant-baseline: central; }
      tspan { dominant-baseline: inherit; }
      text.d-text-left, tspan.d-text-left { text-anchor: start; }
      text.d-text-bottom, tspan.d-text-bottom { dominant-baseline: text-after-edge; }
      text.d-text-right, tspan.d-text-right { text-anchor: end; }
      marker path { fill: inherit; }
      line.d-arrow, polyline.d-arrow, path.d-arrow { marker-end: url(#d-arrow); }
    ]]>
  </style>
  <rect id="ace" x="0" y="0" width="25" height="15"/>
  <text x="12.5" y="7.5" class="d-text">
  <tspan x="12.5" dy="-1.575em">ATTITUDE</tspan><tspan x="12.5" dy="1.05em">CONTROL</tspan><tspan x="12.5" dy="1.05em">ELECTRONICS</tspan><tspan x="12.5" dy="1.05em">(ACE)</tspan>
  </text>
  <rect id="prgp" x="0" y="33" width="25" height="12"/>
  <text x="12.5" y="39" class="d-text">
  <tspan x="12.5" dy="-1.05em">PRIMARY</tspan><tspan x="12.5" dy="1.05em">RATE GYRO</tspan><tspan x="12.5" dy="1.05em">PACKAGE</tspan>
  </text>
  <rect id="srgp" x="0" y="52" width="25" height="12"/>
  <text x="12.5" y="58" class="d-text">
  <tspan x="12.5" dy="-1.05em">SECONDARY</tspan><tspan x="12.5" dy="1.05em">RATE GYRO</tspan><tspan x="12.5" dy="1.05em">PACKAGE</tspan>
  </text>

  <rect id="oame" x="73.5" y="0" width="27" height="15"/>
  <text x="87" y="7.5" class="d-text">
  <tspan x="87" dy="-1.575em">ORBIT ATTITUDE</tspan><tspan x="87" dy="1.05em">AND MANEUVER</tspan><tspan x="87" dy="1.05em">ELECTRONICS</tspan><tspan x="87" dy="1.05em">(OAME)</tspan>
  </text>
  <rect id="pi" x="76" y="33" width="22" height="12"/>
  <text x="87" y="39" class="d-text">
  <tspan x="87" dy="-0.525em">POWER</tspan><tspan x="87" dy="1.05em">INVERTER</tspan>
  </text>

  <rect id="ms" x="-34" y="-16" width="18" height="7" class="d-none"/>
  <text x="-33" y="-12.5" class="d-text d-text-left d-none">
  <tspan x="-33" dy="-0.525em">MODE</tspan><tspan x="-33" dy="1.05em">SELECTION</tspan>
  </text>
  <rect id="as" x="-32" y="0" width="16" height="7" class="d-none"/>
  <text x="-31" y="3.5" class="d-text d-text-left d-none">
  <tspan x="-31" dy="-0.525em">ATTITUDE</tspan><tspan x="-31" dy="1.05em">SIGNALS</tspan>
  </text>
  <rect id="rrcs" x="110.5" y="-20" width="18" height="15" class="d-none"/>
  <text x="111.5" y="-12.5" class="d-text d-text-left d-none">
  <tspan x="111.5" dy="-1.575em">REENTRY</tspan><tspan x="111.5" dy="1.05em">REACTION</tspan><tspan x="111.5" dy="1.05em">CONTROL</tspan><tspan x="111.5" dy="1.05em">SYSTEM</tspan>
  </text>
  <rect id="oaamrcs" x="110.5" y="0" width="35" height="15" class="d-none"/>
  <text x="111.5" y="7.5" class="d-text d-text-left d-none">
  <tspan x="111.5" dy="-1.575em">ORBIT ATTITUDE</tspan><tspan x="111.5" dy="1.05em">AND MANEUVER</tspan><tspan x="111.5" dy="1.05em">REACTION CONTROL</tspan><tspan x="111.5" dy="1.05em">SYSTEM</tspan>
  </text>

  <circle id="ppi" cx="35" cy="39" r="0.75" class="d-fill-black"/>
  <circle id="jfc" cx="49" cy="7.5" r="0.75" class="d-fill-black"/>

  <polyline points="0 39, -8 39, -8 11.25, 0 11.25" class="d-arrow"/>
  <text x="-1" y="38" class="d-text d-text-bottom d-text-right d-arrow">p,q,r</text>
  <polyline points="0 58, -14 58, -14 7.5, 0 7.5" class="d-arrow"/>
  <text x="-1" y="57" class="d-text d-text-bottom d-text-right d-arrow">p,q,r</text>
  <line x1="-16" y1="3.5" x2="0" y2="3.5" class="d-arrow"/>

  <polyline points="35 38.25, 35 21.975, 12.5 21.975, 12.5 15" class="d-arrow"/>
  <polyline points="35 39.75, 35 58, 25 58" class="d-arrow"/>
  <polyline points="49 6.75, 49 -12.5, 110.5 -12.5" class="d-arrow"/>
  <line x1="100.5" y1="7.5" x2="110.5" y2="7.5" class="d-arrow"/>

  <polyline points="25 7.5, 73.5 7.5" class="d-arrow"/>
  <text x="39.25" y="7.7" class="d-text d-arrow">
  <tspan x="39.25" dy="-0.65em">JET FIRING</tspan><tspan x="39.25" dy="1.3em">COMMANDS</tspan>
  </text>
  <polyline points="76 39, 25 39" class="d-arrow"/>
  <text x="50.5" y="37" class="d-text d-arrow">26V, 400~</text>

  <polyline points="-16 -12.5, 12.5 -12.5, 12.5 0" class="d-arrow"/>
</svg>
