<svg version="1.1" xmlns="http://www.w3.org/2000/svg" width="131mm" height="131mm" viewBox="-10 -10 131 131">
  <defs>
    <filter id="d-softshadow" x="-50%" y="-50%" width="200%" height="200%">
      <feGaussianBlur in="SourceAlpha" stdDeviation="0.7"/>
      <feOffset dx="1" dy="1"/>
      <feComposite in2="SourceGraphic" operator="arithmetic" k1="0" k2="0.4" k3="1" k4="0"/>
    </filter>
  </defs>
  <style>
  <![CDATA[
    rect, circle, ellipse, line, polyline, polygon, path { stroke-width: 0.5; stroke: black; }
    rect, circle, ellipse, polygon { fill: white; }
    line, polyline, path { fill: none; }
    .d-softshadow:not(text,tspan) { filter: url(#d-softshadow); }
  ]]>
  </style>



        <rect x="0.5" y="0.5" width="15" height="15" class="d-softshadow"/>

        <rect x="-1.294" y="-1.294" width="15" height="15" class="d-softshadow"/>

        <rect x="-3.088" y="-3.088" width="15" height="15" class="d-softshadow"/>

        <rect x="-4.882" y="-4.882" width="15" height="15" class="d-softshadow"/>


        <rect x="20.4" y="0.4" width="15" height="15" class="d-softshadow"/>

        <rect x="18.762" y="-1.238" width="15" height="15" class="d-softshadow"/>

        <rect x="17.124" y="-2.876" width="15" height="15" class="d-softshadow"/>

        <rect x="15.486" y="-4.514" width="15" height="15" class="d-softshadow"/>


        <rect x="40.7" y="0.7" width="15" height="15" class="d-softshadow"/>

        <rect x="40.591" y="0.591" width="15" height="15" class="d-softshadow"/>

        <rect x="40.482" y="0.482" width="15" height="15" class="d-softshadow"/>


        <rect x="60.2" y="0.2" width="15" height="15" class="d-softshadow"/>

        <rect x="59.736" y="-0.264" width="15" height="15" class="d-softshadow"/>

        <rect x="59.272" y="-0.728" width="15" height="15" class="d-softshadow"/>

        <rect x="58.808" y="-1.192" width="15" height="15" class="d-softshadow"/>

        <rect x="58.344" y="-1.656" width="15" height="15" class="d-softshadow"/>

        <rect x="57.88" y="-2.12" width="15" height="15" class="d-softshadow"/>


        <rect x="80.8" y="0.8" width="15" height="15" class="d-softshadow"/>

        <rect x="79.351" y="-0.649" width="15" height="15" class="d-softshadow"/>

        <rect x="77.902" y="-2.098" width="15" height="15" class="d-softshadow"/>


        <rect x="100.9" y="0.9" width="15" height="15" class="d-softshadow"/>

        <rect x="100.119" y="0.119" width="15" height="15" class="d-softshadow"/>

        <rect x="99.338" y="-0.662" width="15" height="15" class="d-softshadow"/>



        <rect x="1" y="21" width="15" height="15" class="d-softshadow"/>

        <rect x="0.929" y="20.929" width="15" height="15" class="d-softshadow"/>

        <rect x="0.858" y="20.858" width="15" height="15" class="d-softshadow"/>

        <rect x="0.787" y="20.787" width="15" height="15" class="d-softshadow"/>

        <rect x="0.716" y="20.716" width="15" height="15" class="d-softshadow"/>

        <rect x="0.645" y="20.645" width="15" height="15" class="d-softshadow"/>


        <rect x="20.9" y="20.9" width="15" height="15" class="d-softshadow"/>

        <rect x="20.872" y="20.872" width="15" height="15" class="d-softshadow"/>

        <rect x="20.844" y="20.844" width="15" height="15" class="d-softshadow"/>

        <rect x="20.816" y="20.816" width="15" height="15" class="d-softshadow"/>

        <rect x="20.788" y="20.788" width="15" height="15" class="d-softshadow"/>

        <rect x="20.76" y="20.76" width="15" height="15" class="d-softshadow"/>


        <rect x="40.3" y="20.3" width="15" height="15" class="d-softshadow"/>

        <rect x="38.926" y="18.926" width="15" height="15" class="d-softshadow"/>

        <rect x="37.552" y="17.552" width="15" height="15" class="d-softshadow"/>


        <rect x="60" y="20" width="15" height="15" class="d-softshadow"/>

        <rect x="58.659" y="18.659" width="15" height="15" class="d-softshadow"/>

        <rect x="57.318" y="17.318" width="15" height="15" class="d-softshadow"/>

        <rect x="55.977" y="15.977" width="15" height="15" class="d-softshadow"/>


        <rect x="80.7" y="20.7" width="15" height="15" class="d-softshadow"/>

        <rect x="79.986" y="19.986" width="15" height="15" class="d-softshadow"/>

        <rect x="79.272" y="19.272" width="15" height="15" class="d-softshadow"/>

        <rect x="78.558" y="18.558" width="15" height="15" class="d-softshadow"/>


        <rect x="100.1" y="20.1" width="15" height="15" class="d-softshadow"/>

        <rect x="99.914" y="19.914" width="15" height="15" class="d-softshadow"/>

        <rect x="99.728" y="19.728" width="15" height="15" class="d-softshadow"/>

        <rect x="99.542" y="19.542" width="15" height="15" class="d-softshadow"/>



        <rect x="0.5" y="40.5" width="15" height="15" class="d-softshadow"/>

        <rect x="0.425" y="40.425" width="15" height="15" class="d-softshadow"/>

        <rect x="0.35" y="40.35" width="15" height="15" class="d-softshadow"/>

        <rect x="0.275" y="40.275" width="15" height="15" class="d-softshadow"/>


        <rect x="20.4" y="40.4" width="15" height="15" class="d-softshadow"/>

        <rect x="19.106" y="39.106" width="15" height="15" class="d-softshadow"/>


        <rect x="40.9" y="40.9" width="15" height="15" class="d-softshadow"/>

        <rect x="39.25" y="39.25" width="15" height="15" class="d-softshadow"/>


        <rect x="60.9" y="40.9" width="15" height="15" class="d-softshadow"/>

        <rect x="59.334" y="39.334" width="15" height="15" class="d-softshadow"/>

        <rect x="57.768" y="37.768" width="15" height="15" class="d-softshadow"/>

        <rect x="56.202" y="36.202" width="15" height="15" class="d-softshadow"/>


        <rect x="80.8" y="40.8" width="15" height="15" class="d-softshadow"/>

        <rect x="79.728" y="39.728" width="15" height="15" class="d-softshadow"/>

        <rect x="78.656" y="38.656" width="15" height="15" class="d-softshadow"/>

        <rect x="77.584" y="37.584" width="15" height="15" class="d-softshadow"/>

        <rect x="76.512" y="36.512" width="15" height="15" class="d-softshadow"/>


        <rect x="100.5" y="40.5" width="15" height="15" class="d-softshadow"/>

        <rect x="100" y="40" width="15" height="15" class="d-softshadow"/>

        <rect x="99.5" y="39.5" width="15" height="15" class="d-softshadow"/>

        <rect x="99" y="39" width="15" height="15" class="d-softshadow"/>



        <rect x="0.8" y="60.8" width="15" height="15" class="d-softshadow"/>

        <rect x="-0.935" y="59.065" width="15" height="15" class="d-softshadow"/>

        <rect x="-2.67" y="57.33" width="15" height="15" class="d-softshadow"/>


        <rect x="20.7" y="60.7" width="15" height="15" class="d-softshadow"/>

        <rect x="18.897" y="58.897" width="15" height="15" class="d-softshadow"/>

        <rect x="17.094" y="57.094" width="15" height="15" class="d-softshadow"/>

        <rect x="15.291" y="55.291" width="15" height="15" class="d-softshadow"/>

        <rect x="13.488" y="53.488" width="15" height="15" class="d-softshadow"/>

        <rect x="11.685" y="51.685" width="15" height="15" class="d-softshadow"/>


        <rect x="40.8" y="60.8" width="15" height="15" class="d-softshadow"/>

        <rect x="40.03" y="60.03" width="15" height="15" class="d-softshadow"/>

        <rect x="39.26" y="59.26" width="15" height="15" class="d-softshadow"/>

        <rect x="38.49" y="58.49" width="15" height="15" class="d-softshadow"/>

        <rect x="37.72" y="57.72" width="15" height="15" class="d-softshadow"/>


        <rect x="60.5" y="60.5" width="15" height="15" class="d-softshadow"/>

        <rect x="60.216" y="60.216" width="15" height="15" class="d-softshadow"/>


        <rect x="80.6" y="60.6" width="15" height="15" class="d-softshadow"/>

        <rect x="79.985" y="59.985" width="15" height="15" class="d-softshadow"/>

        <rect x="79.37" y="59.37" width="15" height="15" class="d-softshadow"/>


        <rect x="100.2" y="60.2" width="15" height="15" class="d-softshadow"/>

        <rect x="98.943" y="58.943" width="15" height="15" class="d-softshadow"/>

        <rect x="97.686" y="57.686" width="15" height="15" class="d-softshadow"/>

        <rect x="96.429" y="56.429" width="15" height="15" class="d-softshadow"/>

        <rect x="95.172" y="55.172" width="15" height="15" class="d-softshadow"/>

        <rect x="93.915" y="53.915" width="15" height="15" class="d-softshadow"/>



        <rect x="1" y="81" width="15" height="15" class="d-softshadow"/>

        <rect x="-0.018" y="79.982" width="15" height="15" class="d-softshadow"/>

        <rect x="-1.036" y="78.964" width="15" height="15" class="d-softshadow"/>

        <rect x="-2.054" y="77.946" width="15" height="15" class="d-softshadow"/>


        <rect x="20.7" y="80.7" width="15" height="15" class="d-softshadow"/>

        <rect x="19.901" y="79.901" width="15" height="15" class="d-softshadow"/>


        <rect x="41" y="81" width="15" height="15" class="d-softshadow"/>

        <rect x="39.152" y="79.152" width="15" height="15" class="d-softshadow"/>

        <rect x="37.304" y="77.304" width="15" height="15" class="d-softshadow"/>

        <rect x="35.456" y="75.456" width="15" height="15" class="d-softshadow"/>

        <rect x="33.608" y="73.608" width="15" height="15" class="d-softshadow"/>


        <rect x="60" y="80" width="15" height="15" class="d-softshadow"/>

        <rect x="59.643" y="79.643" width="15" height="15" class="d-softshadow"/>

        <rect x="59.286" y="79.286" width="15" height="15" class="d-softshadow"/>


        <rect x="80.9" y="80.9" width="15" height="15" class="d-softshadow"/>

        <rect x="79.473" y="79.473" width="15" height="15" class="d-softshadow"/>


        <rect x="100.7" y="80.7" width="15" height="15" class="d-softshadow"/>

        <rect x="98.951" y="78.951" width="15" height="15" class="d-softshadow"/>



        <rect x="1" y="101" width="15" height="15" class="d-softshadow"/>

        <rect x="-0.817" y="99.183" width="15" height="15" class="d-softshadow"/>

        <rect x="-2.634" y="97.366" width="15" height="15" class="d-softshadow"/>

        <rect x="-4.451" y="95.549" width="15" height="15" class="d-softshadow"/>


        <rect x="20.6" y="100.6" width="15" height="15" class="d-softshadow"/>

        <rect x="18.671" y="98.671" width="15" height="15" class="d-softshadow"/>


        <rect x="40" y="100" width="15" height="15" class="d-softshadow"/>

        <rect x="39.23" y="99.23" width="15" height="15" class="d-softshadow"/>

        <rect x="38.46" y="98.46" width="15" height="15" class="d-softshadow"/>


        <rect x="60.7" y="100.7" width="15" height="15" class="d-softshadow"/>

        <rect x="59.117" y="99.117" width="15" height="15" class="d-softshadow"/>

        <rect x="57.534" y="97.534" width="15" height="15" class="d-softshadow"/>

        <rect x="55.951" y="95.951" width="15" height="15" class="d-softshadow"/>

        <rect x="54.368" y="94.368" width="15" height="15" class="d-softshadow"/>

        <rect x="52.785" y="92.785" width="15" height="15" class="d-softshadow"/>


        <rect x="80.6" y="100.6" width="15" height="15" class="d-softshadow"/>

        <rect x="79.626" y="99.626" width="15" height="15" class="d-softshadow"/>


        <rect x="100.8" y="100.8" width="15" height="15" class="d-softshadow"/>

        <rect x="99.866" y="99.866" width="15" height="15" class="d-softshadow"/>

        <rect x="98.932" y="98.932" width="15" height="15" class="d-softshadow"/>

        <rect x="97.998" y="97.998" width="15" height="15" class="d-softshadow"/>
      </svg>
