<svg version="1.1" xmlns="http://www.w3.org/2000/svg" width="130mm" height="128mm" viewBox="-9 -7 130 128">
  <defs>
    <filter id="d-softshadow" x="-50%" y="-50%" width="200%" height="200%">
      <feGaussianBlur in="SourceAlpha" stdDeviation="0.7"/>
      <feOffset dx="1" dy="1"/>
      <feComposite in2="SourceGraphic" operator="arithmetic" k1="0" k2="0.4" k3="1" k4="0"/>
    </filter>
  </defs>
  <style>
    <![CDATA[
      svg { background: none; }
      svg * { stroke-linecap: round; stroke-linejoin: round; }
      rect, circle, ellipse, polygon { stroke-width: 0.5; fill: white; stroke: black; }
      line, polyline, path { stroke-width: 0.5; fill: none; stroke: black; }
      text, tspan { stroke-width: 0; font-family: sans-serif; font-size: 3px; fill: black; paint-order: stroke; stroke: white; }
      .d-softshadow { filter: url(#d-softshadow); }
    ]]>
  </style>



        <rect x="1" y="1" width="15" height="15" class="d-softshadow"/>

        <rect x="0.843" y="0.843" width="15" height="15" class="d-softshadow"/>



        <rect x="20.2" y="0.2" width="15" height="15" class="d-softshadow"/>

        <rect x="19.447" y="-0.553" width="15" height="15" class="d-softshadow"/>

        <rect x="18.694" y="-1.306" width="15" height="15" class="d-softshadow"/>



        <rect x="40.7" y="0.7" width="15" height="15" class="d-softshadow"/>

        <rect x="40.674" y="0.674" width="15" height="15" class="d-softshadow"/>



        <rect x="60.1" y="0.1" width="15" height="15" class="d-softshadow"/>

        <rect x="60.046" y="0.046" width="15" height="15" class="d-softshadow"/>

        <rect x="59.992" y="-0.008" width="15" height="15" class="d-softshadow"/>

        <rect x="59.938" y="-0.062" width="15" height="15" class="d-softshadow"/>



        <rect x="80.5" y="0.5" width="15" height="15" class="d-softshadow"/>

        <rect x="80.026" y="0.026" width="15" height="15" class="d-softshadow"/>

        <rect x="79.552" y="-0.448" width="15" height="15" class="d-softshadow"/>

        <rect x="79.078" y="-0.922" width="15" height="15" class="d-softshadow"/>

        <rect x="78.604" y="-1.396" width="15" height="15" class="d-softshadow"/>



        <rect x="101" y="1" width="15" height="15" class="d-softshadow"/>

        <rect x="100.79" y="0.79" width="15" height="15" class="d-softshadow"/>

        <rect x="100.58" y="0.58" width="15" height="15" class="d-softshadow"/>





        <rect x="0.5" y="20.5" width="15" height="15" class="d-softshadow"/>

        <rect x="-0.408" y="19.592" width="15" height="15" class="d-softshadow"/>

        <rect x="-1.316" y="18.684" width="15" height="15" class="d-softshadow"/>

        <rect x="-2.224" y="17.776" width="15" height="15" class="d-softshadow"/>

        <rect x="-3.132" y="16.868" width="15" height="15" class="d-softshadow"/>



        <rect x="20.5" y="20.5" width="15" height="15" class="d-softshadow"/>

        <rect x="18.904" y="18.904" width="15" height="15" class="d-softshadow"/>

        <rect x="17.308" y="17.308" width="15" height="15" class="d-softshadow"/>

        <rect x="15.712" y="15.712" width="15" height="15" class="d-softshadow"/>

        <rect x="14.116" y="14.116" width="15" height="15" class="d-softshadow"/>



        <rect x="41" y="21" width="15" height="15" class="d-softshadow"/>

        <rect x="39.631" y="19.631" width="15" height="15" class="d-softshadow"/>

        <rect x="38.262" y="18.262" width="15" height="15" class="d-softshadow"/>

        <rect x="36.893" y="16.893" width="15" height="15" class="d-softshadow"/>



        <rect x="60.1" y="20.1" width="15" height="15" class="d-softshadow"/>

        <rect x="58.616" y="18.616" width="15" height="15" class="d-softshadow"/>

        <rect x="57.132" y="17.132" width="15" height="15" class="d-softshadow"/>

        <rect x="55.648" y="15.648" width="15" height="15" class="d-softshadow"/>



        <rect x="80.9" y="20.9" width="15" height="15" class="d-softshadow"/>

        <rect x="79.936" y="19.936" width="15" height="15" class="d-softshadow"/>

        <rect x="78.972" y="18.972" width="15" height="15" class="d-softshadow"/>

        <rect x="78.008" y="18.008" width="15" height="15" class="d-softshadow"/>

        <rect x="77.044" y="17.044" width="15" height="15" class="d-softshadow"/>

        <rect x="76.08" y="16.08" width="15" height="15" class="d-softshadow"/>



        <rect x="100.2" y="20.2" width="15" height="15" class="d-softshadow"/>

        <rect x="99.03" y="19.03" width="15" height="15" class="d-softshadow"/>

        <rect x="97.86" y="17.86" width="15" height="15" class="d-softshadow"/>

        <rect x="96.69" y="16.69" width="15" height="15" class="d-softshadow"/>

        <rect x="95.52" y="15.52" width="15" height="15" class="d-softshadow"/>

        <rect x="94.35" y="14.35" width="15" height="15" class="d-softshadow"/>





        <rect x="0.5" y="40.5" width="15" height="15" class="d-softshadow"/>

        <rect x="0.068" y="40.068" width="15" height="15" class="d-softshadow"/>

        <rect x="-0.364" y="39.636" width="15" height="15" class="d-softshadow"/>

        <rect x="-0.796" y="39.204" width="15" height="15" class="d-softshadow"/>



        <rect x="20.1" y="40.1" width="15" height="15" class="d-softshadow"/>

        <rect x="18.793" y="38.793" width="15" height="15" class="d-softshadow"/>

        <rect x="17.486" y="37.486" width="15" height="15" class="d-softshadow"/>

        <rect x="16.179" y="36.179" width="15" height="15" class="d-softshadow"/>



        <rect x="41" y="41" width="15" height="15" class="d-softshadow"/>

        <rect x="40.571" y="40.571" width="15" height="15" class="d-softshadow"/>

        <rect x="40.142" y="40.142" width="15" height="15" class="d-softshadow"/>



        <rect x="60.9" y="40.9" width="15" height="15" class="d-softshadow"/>

        <rect x="59.483" y="39.483" width="15" height="15" class="d-softshadow"/>



        <rect x="80.3" y="40.3" width="15" height="15" class="d-softshadow"/>

        <rect x="79.617" y="39.617" width="15" height="15" class="d-softshadow"/>

        <rect x="78.934" y="38.934" width="15" height="15" class="d-softshadow"/>

        <rect x="78.251" y="38.251" width="15" height="15" class="d-softshadow"/>

        <rect x="77.568" y="37.568" width="15" height="15" class="d-softshadow"/>



        <rect x="100" y="40" width="15" height="15" class="d-softshadow"/>

        <rect x="99.908" y="39.908" width="15" height="15" class="d-softshadow"/>

        <rect x="99.816" y="39.816" width="15" height="15" class="d-softshadow"/>





        <rect x="1" y="61" width="15" height="15" class="d-softshadow"/>

        <rect x="0.624" y="60.624" width="15" height="15" class="d-softshadow"/>

        <rect x="0.248" y="60.248" width="15" height="15" class="d-softshadow"/>

        <rect x="-0.128" y="59.872" width="15" height="15" class="d-softshadow"/>



        <rect x="20.6" y="60.6" width="15" height="15" class="d-softshadow"/>

        <rect x="19.289" y="59.289" width="15" height="15" class="d-softshadow"/>

        <rect x="17.978" y="57.978" width="15" height="15" class="d-softshadow"/>



        <rect x="40.1" y="60.1" width="15" height="15" class="d-softshadow"/>

        <rect x="38.915" y="58.915" width="15" height="15" class="d-softshadow"/>

        <rect x="37.73" y="57.73" width="15" height="15" class="d-softshadow"/>

        <rect x="36.545" y="56.545" width="15" height="15" class="d-softshadow"/>

        <rect x="35.36" y="55.36" width="15" height="15" class="d-softshadow"/>



        <rect x="61" y="61" width="15" height="15" class="d-softshadow"/>

        <rect x="60.126" y="60.126" width="15" height="15" class="d-softshadow"/>

        <rect x="59.252" y="59.252" width="15" height="15" class="d-softshadow"/>

        <rect x="58.378" y="58.378" width="15" height="15" class="d-softshadow"/>



        <rect x="80.7" y="60.7" width="15" height="15" class="d-softshadow"/>

        <rect x="80.493" y="60.493" width="15" height="15" class="d-softshadow"/>

        <rect x="80.286" y="60.286" width="15" height="15" class="d-softshadow"/>

        <rect x="80.079" y="60.079" width="15" height="15" class="d-softshadow"/>



        <rect x="100.3" y="60.3" width="15" height="15" class="d-softshadow"/>

        <rect x="98.371" y="58.371" width="15" height="15" class="d-softshadow"/>





        <rect x="0.2" y="80.2" width="15" height="15" class="d-softshadow"/>

        <rect x="-1.568" y="78.432" width="15" height="15" class="d-softshadow"/>



        <rect x="20.5" y="80.5" width="15" height="15" class="d-softshadow"/>

        <rect x="20.161" y="80.161" width="15" height="15" class="d-softshadow"/>

        <rect x="19.822" y="79.822" width="15" height="15" class="d-softshadow"/>



        <rect x="41" y="81" width="15" height="15" class="d-softshadow"/>

        <rect x="39.412" y="79.412" width="15" height="15" class="d-softshadow"/>



        <rect x="60.1" y="80.1" width="15" height="15" class="d-softshadow"/>

        <rect x="58.866" y="78.866" width="15" height="15" class="d-softshadow"/>

        <rect x="57.632" y="77.632" width="15" height="15" class="d-softshadow"/>



        <rect x="80.8" y="80.8" width="15" height="15" class="d-softshadow"/>

        <rect x="80.155" y="80.155" width="15" height="15" class="d-softshadow"/>

        <rect x="79.51" y="79.51" width="15" height="15" class="d-softshadow"/>



        <rect x="100.5" y="80.5" width="15" height="15" class="d-softshadow"/>

        <rect x="98.637" y="78.637" width="15" height="15" class="d-softshadow"/>





        <rect x="1" y="101" width="15" height="15" class="d-softshadow"/>

        <rect x="0.662" y="100.662" width="15" height="15" class="d-softshadow"/>

        <rect x="0.324" y="100.324" width="15" height="15" class="d-softshadow"/>

        <rect x="-0.014" y="99.986" width="15" height="15" class="d-softshadow"/>

        <rect x="-0.352" y="99.648" width="15" height="15" class="d-softshadow"/>



        <rect x="20.7" y="100.7" width="15" height="15" class="d-softshadow"/>

        <rect x="20.683" y="100.683" width="15" height="15" class="d-softshadow"/>



        <rect x="40.7" y="100.7" width="15" height="15" class="d-softshadow"/>

        <rect x="40.269" y="100.269" width="15" height="15" class="d-softshadow"/>



        <rect x="61" y="101" width="15" height="15" class="d-softshadow"/>

        <rect x="59.706" y="99.706" width="15" height="15" class="d-softshadow"/>

        <rect x="58.412" y="98.412" width="15" height="15" class="d-softshadow"/>

        <rect x="57.118" y="97.118" width="15" height="15" class="d-softshadow"/>

        <rect x="55.824" y="95.824" width="15" height="15" class="d-softshadow"/>



        <rect x="80" y="100" width="15" height="15" class="d-softshadow"/>

        <rect x="78.501" y="98.501" width="15" height="15" class="d-softshadow"/>



        <rect x="100.9" y="100.9" width="15" height="15" class="d-softshadow"/>

        <rect x="100.875" y="100.875" width="15" height="15" class="d-softshadow"/>

        <rect x="100.85" y="100.85" width="15" height="15" class="d-softshadow"/>

        <rect x="100.825" y="100.825" width="15" height="15" class="d-softshadow"/>



</svg>
