<svg version="1.1" xmlns="http://www.w3.org/2000/svg" width="136mm" height="132mm" viewBox="-15 -11 136 132">
  <defs>
    <filter id="d-softshadow" x="-50%" y="-50%" width="200%" height="200%">
      <feGaussianBlur in="SourceAlpha" stdDeviation="0.7"/>
      <feOffset dx="1" dy="1"/>
      <feComposite in2="SourceGraphic" operator="arithmetic" k1="0" k2="0.4" k3="1" k4="0"/>
    </filter>
  </defs>
  <style>
    <![CDATA[
      svg { background: none; }
      svg * { stroke-linecap: round; stroke-linejoin: round; }
      rect, circle, ellipse, polygon { stroke-width: 0.5; fill: white; stroke: black; }
      line, polyline, path { stroke-width: 0.5; fill: none; stroke: black; }
      text, tspan { stroke-width: 0; font-family: sans-serif; font-size: 3px; fill: black; paint-order: stroke; stroke: white; }
      .d-softshadow { filter: url(#d-softshadow); }
    ]]>
  </style>



        <rect x="0.4" y="0.4" width="15" height="15" class="d-softshadow"/>

        <rect x="0.166" y="0.166" width="15" height="15" class="d-softshadow"/>



        <rect x="20" y="0" width="15" height="15" class="d-softshadow"/>

        <rect x="18.9" y="-1.1" width="15" height="15" class="d-softshadow"/>

        <rect x="17.8" y="-2.2" width="15" height="15" class="d-softshadow"/>

        <rect x="16.7" y="-3.3" width="15" height="15" class="d-softshadow"/>

        <rect x="15.6" y="-4.4" width="15" height="15" class="d-softshadow"/>



        <rect x="40.7" y="0.7" width="15" height="15" class="d-softshadow"/>

        <rect x="39.778" y="-0.222" width="15" height="15" class="d-softshadow"/>



        <rect x="61" y="1" width="15" height="15" class="d-softshadow"/>

        <rect x="60.79" y="0.79" width="15" height="15" class="d-softshadow"/>

        <rect x="60.58" y="0.58" width="15" height="15" class="d-softshadow"/>



        <rect x="80.4" y="0.4" width="15" height="15" class="d-softshadow"/>

        <rect x="78.432" y="-1.568" width="15" height="15" class="d-softshadow"/>

        <rect x="76.464" y="-3.536" width="15" height="15" class="d-softshadow"/>

        <rect x="74.496" y="-5.504" width="15" height="15" class="d-softshadow"/>



        <rect x="100.4" y="0.4" width="15" height="15" class="d-softshadow"/>

        <rect x="100.177" y="0.177" width="15" height="15" class="d-softshadow"/>

        <rect x="99.954" y="-0.046" width="15" height="15" class="d-softshadow"/>

        <rect x="99.731" y="-0.269" width="15" height="15" class="d-softshadow"/>

        <rect x="99.508" y="-0.492" width="15" height="15" class="d-softshadow"/>





        <rect x="0.5" y="20.5" width="15" height="15" class="d-softshadow"/>

        <rect x="-1.43" y="18.57" width="15" height="15" class="d-softshadow"/>

        <rect x="-3.36" y="16.64" width="15" height="15" class="d-softshadow"/>

        <rect x="-5.29" y="14.71" width="15" height="15" class="d-softshadow"/>

        <rect x="-7.22" y="12.78" width="15" height="15" class="d-softshadow"/>

        <rect x="-9.15" y="10.85" width="15" height="15" class="d-softshadow"/>



        <rect x="20.6" y="20.6" width="15" height="15" class="d-softshadow"/>

        <rect x="19.467" y="19.467" width="15" height="15" class="d-softshadow"/>

        <rect x="18.334" y="18.334" width="15" height="15" class="d-softshadow"/>



        <rect x="40.2" y="20.2" width="15" height="15" class="d-softshadow"/>

        <rect x="39.394" y="19.394" width="15" height="15" class="d-softshadow"/>

        <rect x="38.588" y="18.588" width="15" height="15" class="d-softshadow"/>

        <rect x="37.782" y="17.782" width="15" height="15" class="d-softshadow"/>



        <rect x="60.3" y="20.3" width="15" height="15" class="d-softshadow"/>

        <rect x="58.447" y="18.447" width="15" height="15" class="d-softshadow"/>

        <rect x="56.594" y="16.594" width="15" height="15" class="d-softshadow"/>

        <rect x="54.741" y="14.741" width="15" height="15" class="d-softshadow"/>

        <rect x="52.888" y="12.888" width="15" height="15" class="d-softshadow"/>



        <rect x="80.1" y="20.1" width="15" height="15" class="d-softshadow"/>

        <rect x="78.354" y="18.354" width="15" height="15" class="d-softshadow"/>

        <rect x="76.608" y="16.608" width="15" height="15" class="d-softshadow"/>



        <rect x="100.3" y="20.3" width="15" height="15" class="d-softshadow"/>

        <rect x="99.617" y="19.617" width="15" height="15" class="d-softshadow"/>

        <rect x="98.934" y="18.934" width="15" height="15" class="d-softshadow"/>

        <rect x="98.251" y="18.251" width="15" height="15" class="d-softshadow"/>

        <rect x="97.568" y="17.568" width="15" height="15" class="d-softshadow"/>





        <rect x="0" y="40" width="15" height="15" class="d-softshadow"/>

        <rect x="-1.015" y="38.985" width="15" height="15" class="d-softshadow"/>



        <rect x="20.6" y="40.6" width="15" height="15" class="d-softshadow"/>

        <rect x="19.289" y="39.289" width="15" height="15" class="d-softshadow"/>

        <rect x="17.978" y="37.978" width="15" height="15" class="d-softshadow"/>



        <rect x="40.1" y="40.1" width="15" height="15" class="d-softshadow"/>

        <rect x="38.915" y="38.915" width="15" height="15" class="d-softshadow"/>

        <rect x="37.73" y="37.73" width="15" height="15" class="d-softshadow"/>

        <rect x="36.545" y="36.545" width="15" height="15" class="d-softshadow"/>

        <rect x="35.36" y="35.36" width="15" height="15" class="d-softshadow"/>



        <rect x="60.6" y="40.6" width="15" height="15" class="d-softshadow"/>

        <rect x="59.182" y="39.182" width="15" height="15" class="d-softshadow"/>

        <rect x="57.764" y="37.764" width="15" height="15" class="d-softshadow"/>

        <rect x="56.346" y="36.346" width="15" height="15" class="d-softshadow"/>



        <rect x="80" y="40" width="15" height="15" class="d-softshadow"/>

        <rect x="79.385" y="39.385" width="15" height="15" class="d-softshadow"/>



        <rect x="100.2" y="40.2" width="15" height="15" class="d-softshadow"/>

        <rect x="98.432" y="38.432" width="15" height="15" class="d-softshadow"/>





        <rect x="0" y="60" width="15" height="15" class="d-softshadow"/>

        <rect x="-1.917" y="58.083" width="15" height="15" class="d-softshadow"/>

        <rect x="-3.834" y="56.166" width="15" height="15" class="d-softshadow"/>



        <rect x="20.3" y="60.3" width="15" height="15" class="d-softshadow"/>

        <rect x="18.678" y="58.678" width="15" height="15" class="d-softshadow"/>



        <rect x="40.1" y="60.1" width="15" height="15" class="d-softshadow"/>

        <rect x="39.139" y="59.139" width="15" height="15" class="d-softshadow"/>

        <rect x="38.178" y="58.178" width="15" height="15" class="d-softshadow"/>



        <rect x="60" y="60" width="15" height="15" class="d-softshadow"/>

        <rect x="58.712" y="58.712" width="15" height="15" class="d-softshadow"/>

        <rect x="57.424" y="57.424" width="15" height="15" class="d-softshadow"/>

        <rect x="56.136" y="56.136" width="15" height="15" class="d-softshadow"/>

        <rect x="54.848" y="54.848" width="15" height="15" class="d-softshadow"/>



        <rect x="80" y="60" width="15" height="15" class="d-softshadow"/>

        <rect x="78.658" y="58.658" width="15" height="15" class="d-softshadow"/>



        <rect x="100.8" y="60.8" width="15" height="15" class="d-softshadow"/>

        <rect x="98.915" y="58.915" width="15" height="15" class="d-softshadow"/>

        <rect x="97.03" y="57.03" width="15" height="15" class="d-softshadow"/>





        <rect x="0.1" y="80.1" width="15" height="15" class="d-softshadow"/>

        <rect x="-0.072" y="79.928" width="15" height="15" class="d-softshadow"/>

        <rect x="-0.244" y="79.756" width="15" height="15" class="d-softshadow"/>

        <rect x="-0.416" y="79.584" width="15" height="15" class="d-softshadow"/>

        <rect x="-0.588" y="79.412" width="15" height="15" class="d-softshadow"/>



        <rect x="20.9" y="80.9" width="15" height="15" class="d-softshadow"/>

        <rect x="20.875" y="80.875" width="15" height="15" class="d-softshadow"/>

        <rect x="20.85" y="80.85" width="15" height="15" class="d-softshadow"/>

        <rect x="20.825" y="80.825" width="15" height="15" class="d-softshadow"/>



        <rect x="40.8" y="80.8" width="15" height="15" class="d-softshadow"/>

        <rect x="40.748" y="80.748" width="15" height="15" class="d-softshadow"/>

        <rect x="40.696" y="80.696" width="15" height="15" class="d-softshadow"/>

        <rect x="40.644" y="80.644" width="15" height="15" class="d-softshadow"/>



        <rect x="60" y="80" width="15" height="15" class="d-softshadow"/>

        <rect x="59.131" y="79.131" width="15" height="15" class="d-softshadow"/>

        <rect x="58.262" y="78.262" width="15" height="15" class="d-softshadow"/>

        <rect x="57.393" y="77.393" width="15" height="15" class="d-softshadow"/>

        <rect x="56.524" y="76.524" width="15" height="15" class="d-softshadow"/>



        <rect x="80.7" y="80.7" width="15" height="15" class="d-softshadow"/>

        <rect x="79.68" y="79.68" width="15" height="15" class="d-softshadow"/>

        <rect x="78.66" y="78.66" width="15" height="15" class="d-softshadow"/>



        <rect x="100.7" y="80.7" width="15" height="15" class="d-softshadow"/>

        <rect x="100.465" y="80.465" width="15" height="15" class="d-softshadow"/>





        <rect x="0.8" y="100.8" width="15" height="15" class="d-softshadow"/>

        <rect x="-0.605" y="99.395" width="15" height="15" class="d-softshadow"/>



        <rect x="20.4" y="100.4" width="15" height="15" class="d-softshadow"/>

        <rect x="19.198" y="99.198" width="15" height="15" class="d-softshadow"/>

        <rect x="17.996" y="97.996" width="15" height="15" class="d-softshadow"/>

        <rect x="16.794" y="96.794" width="15" height="15" class="d-softshadow"/>

        <rect x="15.592" y="95.592" width="15" height="15" class="d-softshadow"/>

        <rect x="14.39" y="94.39" width="15" height="15" class="d-softshadow"/>



        <rect x="40.3" y="100.3" width="15" height="15" class="d-softshadow"/>

        <rect x="39.058" y="99.058" width="15" height="15" class="d-softshadow"/>

        <rect x="37.816" y="97.816" width="15" height="15" class="d-softshadow"/>

        <rect x="36.574" y="96.574" width="15" height="15" class="d-softshadow"/>



        <rect x="61" y="101" width="15" height="15" class="d-softshadow"/>

        <rect x="60.686" y="100.686" width="15" height="15" class="d-softshadow"/>



        <rect x="81" y="101" width="15" height="15" class="d-softshadow"/>

        <rect x="79.196" y="99.196" width="15" height="15" class="d-softshadow"/>



        <rect x="100" y="100" width="15" height="15" class="d-softshadow"/>

        <rect x="98.463" y="98.463" width="15" height="15" class="d-softshadow"/>



</svg>
