<svg version="1.1" xmlns="http://www.w3.org/2000/svg" width="82.5mm" height="82.5mm" viewBox="-13.75 -13.75 82.5 82.5">
  <defs>
   <marker id="arrow" refX="1" refY="0.5" orient="auto-start-reverse" markerWidth="5" markerHeight="5" viewBox="0 0 1 1">
     <path d="M 0 0 1 0.5 0 1" style="stroke-width: 0.2;"/>
   </marker>
  </defs>
  <style>
    <![CDATA[
        rect, line {
            stroke-width: 0.5;
            stroke: black;
            fill: white;
        }
        text {
            font-family: "Ubuntu Mono", monospace;
            font-size: 3px;
        }
        /* prior to top/bottom/left/right so they can override this */
        text, text * { dominant-baseline: central; text-anchor: middle; }
        text.text-top, text.text-top * { dominant-baseline: text-before-edge; }
        text.text-bottom, text.text-bottom * { dominant-baseline: text-after-edge; }
        text.text-left, text.text-left * { text-anchor: start; }
        text.text-right, text.text-right * { text-anchor: end; }
        text.small, text.small * { font-size: 1.5px; }
        text.medium, text.medium * { font-size: 2.25px; }
        text.large, text.large * { font-size: 3px; }
    ]]>
  </style>

  <!-- top row -->
  <rect x="0" y="0" width="15" height="15" class="small"/>
  <text x="1" y="1" class="small tbox text-top text-left">
  <tspan x="1" dy="0em">Multi</tspan><tspan x="1" dy="1.05em">line</tspan><tspan x="1" dy="1.05em">text</tspan>
  </text>
  <rect x="20" y="0" width="15" height="15" class="medium"/>
  <text x="27.5" y="1" class="medium tbox text-top">
  <tspan x="27.5" dy="0em">Multi</tspan><tspan x="27.5" dy="1.05em">line</tspan><tspan x="27.5" dy="1.05em">text</tspan>
  </text>
  <rect x="40" y="0" width="15" height="15" class="large"/>
  <text x="54" y="1" class="large tbox text-top text-right">
  <tspan x="54" dy="0em">Multi</tspan><tspan x="54" dy="1.05em">line</tspan><tspan x="54" dy="1.05em">text</tspan>
  </text>

  <!-- middle row -->
  <rect x="0" y="20" width="15" height="15" class="small"/>
  <text x="1" y="27.5" class="small tbox text-left">
  <tspan x="1" dy="-1.05em">Multi</tspan><tspan x="1" dy="1.05em">line</tspan><tspan x="1" dy="1.05em">text</tspan>
  </text>
  <rect x="20" y="20" width="15" height="15" class="medium"/>
  <text x="27.5" y="27.5" class="medium tbox">
  <tspan x="27.5" dy="-1.05em">Multi</tspan><tspan x="27.5" dy="1.05em">line</tspan><tspan x="27.5" dy="1.05em">text</tspan>
  </text>
  <rect x="40" y="20" width="15" height="15" class="large"/>
  <text x="54" y="27.5" class="large tbox text-right">
  <tspan x="54" dy="-1.05em">Multi</tspan><tspan x="54" dy="1.05em">line</tspan><tspan x="54" dy="1.05em">text</tspan>
  </text>

  <!-- bottom row -->
  <rect x="0" y="40" width="15" height="15" class="small"/>
  <text x="1" y="54" class="small tbox text-bottom text-left">
  <tspan x="1" dy="-2.1em">Multi</tspan><tspan x="1" dy="1.05em">line</tspan><tspan x="1" dy="1.05em">text</tspan>
  </text>
  <rect x="20" y="40" width="15" height="15" class="medium"/>
  <text x="27.5" y="54" class="medium tbox text-bottom">
  <tspan x="27.5" dy="-2.1em">Multi</tspan><tspan x="27.5" dy="1.05em">line</tspan><tspan x="27.5" dy="1.05em">text</tspan>
  </text>
  <rect x="40" y="40" width="15" height="15" class="large"/>
  <text x="54" y="54" class="large tbox text-bottom text-right">
  <tspan x="54" dy="-2.1em">Multi</tspan><tspan x="54" dy="1.05em">line</tspan><tspan x="54" dy="1.05em">text</tspan>
  </text>
</svg>
