<svg version="1.1" xmlns="http://www.w3.org/2000/svg" width="82.5mm" height="82.5mm" viewBox="-13.75 -13.75 82.5 82.5">
  <defs>
   <marker id="arrow" refX="1" refY="0.5" orient="auto-start-reverse" markerWidth="5" markerHeight="5" viewBox="0 0 1 1">
     <path d="M 0 0 1 0.5 0 1" style="stroke-width: 0.2;"/>
   </marker>
  </defs>
  <style>
    <![CDATA[
        rect, line {
            stroke-width: 0.5;
            stroke: black;
            fill: white;
        }
        text {
            font-family: "Ubuntu Mono", monospace;
            font-size: 3px;
        }
        /* prior to top/bottom/left/right so they can override this */
        text {
            dominant-baseline: central;
            text-anchor: middle;
        }
        text.text-top {
            dominant-baseline: text-before-edge;
        }
        text.text-bottom {
            dominant-baseline: text-after-edge;
        }
        text.text-left {
            text-anchor: start;
        }
        text.text-right {
            text-anchor: end;
        }
    ]]>
  </style>

  <rect x="0" y="0" width="15" height="15"/>
  <text x="0" y="0" dx="1" dy="1" class="tbox text-top text-left">Multi</text><text x="0" y="0" dx="1" dy="4" class="tbox text-top text-left">line</text><text x="0" y="0" dx="1" dy="7" class="tbox text-top text-left">text</text>
  <rect x="20" y="0" width="15" height="15"/>
  <text x="27.5" y="0" dy="1" class="tbox text-top">Multi</text><text x="27.5" y="0" dy="4" class="tbox text-top">line</text><text x="27.5" y="0" dy="7" class="tbox text-top">text</text>
  <rect x="40" y="0" width="15" height="15"/>
  <text x="55" y="0" dx="-1" dy="1" class="tbox text-top text-right">Multi</text><text x="55" y="0" dx="-1" dy="4" class="tbox text-top text-right">line</text><text x="55" y="0" dx="-1" dy="7" class="tbox text-top text-right">text</text>

  <rect x="0" y="20" width="15" height="15"/>
  <text x="0" y="27.5" dx="1" dy="-3" class="tbox text-left">Multi</text><text x="0" y="27.5" dx="1" dy="0" class="tbox text-left">line</text><text x="0" y="27.5" dx="1" dy="3" class="tbox text-left">text</text>
  <rect x="20" y="20" width="15" height="15"/>
  <text x="27.5" y="27.5" dy="-3" class="tbox">Multi</text><text x="27.5" y="27.5" dy="0" class="tbox">line</text><text x="27.5" y="27.5" dy="3" class="tbox">text</text>
  <rect x="40" y="20" width="15" height="15"/>
  <text x="55" y="27.5" dx="-1" dy="-3" class="tbox text-right">Multi</text><text x="55" y="27.5" dx="-1" dy="0" class="tbox text-right">line</text><text x="55" y="27.5" dx="-1" dy="3" class="tbox text-right">text</text>

  <rect x="0" y="40" width="15" height="15"/>
  <text x="0" y="55" dx="1" dy="-7" class="tbox text-bottom text-left">Multi</text><text x="0" y="55" dx="1" dy="-4" class="tbox text-bottom text-left">line</text><text x="0" y="55" dx="1" dy="-1" class="tbox text-bottom text-left">text</text>
  <rect x="20" y="40" width="15" height="15"/>
  <text x="27.5" y="55" dy="-7" class="tbox text-bottom">Multi</text><text x="27.5" y="55" dy="-4" class="tbox text-bottom">line</text><text x="27.5" y="55" dy="-1" class="tbox text-bottom">text</text>
  <rect x="40" y="40" width="15" height="15"/>
  <text x="55" y="55" dx="-1" dy="-7" class="tbox text-bottom text-right">Multi</text><text x="55" y="55" dx="-1" dy="-4" class="tbox text-bottom text-right">line</text><text x="55" y="55" dx="-1" dy="-1" class="tbox text-bottom text-right">text</text>
</svg>
