<svg version="1.1" xmlns="http://www.w3.org/2000/svg" width="180mm" height="120mm" viewBox="-5 -5 180 120">
  <defs>
    <marker id="d-arrow" refX="1" refY="0.5" orient="auto-start-reverse" markerWidth="5" markerHeight="5" viewBox="0 0 1 1">
      <path d="M 0 0 1 0.5 0 1" style="stroke-width: 0.2; stroke: context-stroke; fill: context-stroke;"/>
    </marker>
  </defs>
  <style>
  <![CDATA[
    rect, circle, ellipse, line, polyline, polygon, path { stroke-width: 0.5; stroke: black; }
    rect, circle, ellipse, polygon { fill: white; }
    line, polyline, path { fill: none; }
    line.d-arrow, polyline.d-arrow, path.d-arrow { marker-end: url(#d-arrow); }
  ]]>
  </style>
  <style>
    <![CDATA[
        #alice { stroke: pink; }
        #bob { stroke: blue; }
        #charles { stroke: red; }
    ]]>
  </style>
    <path id="alice" d="M 0 26.667 h 20
    M 10 20 v 20
    M 0 60 l 10 -20 10 20
    M 10 0
    A 10 10 0 1 0 10 20
    A 10 10 0 1 0 10 0
    " class="person"/>
    <path id="bob" d="M 150 26.667 h 20
    M 160 20 v 20
    M 150 60 l 10 -20 10 20
    M 160 0
    A 10 10 0 1 0 160 20
    A 10 10 0 1 0 160 0
    " class="person"/>
    <path id="charles" d="M 75 76.667 h 20
    M 85 70 v 20
    M 75 110 l 10 -20 10 20
    M 85 50
    A 10 10 0 1 0 85 70
    A 10 10 0 1 0 85 50
    " class="person"/>

    <line x1="10" y1="30" x2="160" y2="30" class="d-arrow"/>
    <line x1="85" y1="80" x2="10" y2="30" class="d-arrow"/>
    <line x1="160" y1="30" x2="85" y2="80" class="d-arrow"/>
</svg>
