<svg version="1.1" xmlns="http://www.w3.org/2000/svg" width="90mm" height="90mm" viewBox="-45 -45 90 90">
  <style>
    <![CDATA[
      rect, circle, ellipse, polygon { stroke-width: 0.5; fill: white; stroke: black; }
      .d-fill-none { fill: none; }
      .d-thick { stroke-width: 1; }
    ]]>
  </style>


      <rect x="-40" y="-40" width="5" height="5" style="fill: white;"/>

      <rect x="-40" y="-35" width="5" height="5" style="fill: white;"/>

      <rect x="-40" y="-30" width="5" height="5" style="fill: white;"/>

      <rect x="-40" y="-25" width="5" height="5" style="fill: white;"/>

      <rect x="-40" y="-20" width="5" height="5" style="fill: white;"/>

      <rect x="-40" y="-15" width="5" height="5" style="fill: white;"/>

      <rect x="-40" y="-10" width="5" height="5" style="fill: white;"/>

      <rect x="-40" y="-5" width="5" height="5" style="fill: white;"/>

      <rect x="-40" y="0" width="5" height="5" style="fill: white;"/>

      <rect x="-40" y="5" width="5" height="5" style="fill: white;"/>

      <rect x="-40" y="10" width="5" height="5" style="fill: white;"/>

      <rect x="-40" y="15" width="5" height="5" style="fill: white;"/>

      <rect x="-40" y="20" width="5" height="5" style="fill: white;"/>

      <rect x="-40" y="25" width="5" height="5" style="fill: white;"/>

      <rect x="-40" y="30" width="5" height="5" style="fill: white;"/>

      <rect x="-40" y="35" width="5" height="5" style="fill: white;"/>



      <rect x="-35" y="-40" width="5" height="5" style="fill: white;"/>

      <rect x="-35" y="-35" width="5" height="5" style="fill: white;"/>

      <rect x="-35" y="-30" width="5" height="5" style="fill: white;"/>

      <rect x="-35" y="-25" width="5" height="5" style="fill: white;"/>

      <rect x="-35" y="-20" width="5" height="5" style="fill: white;"/>

      <rect x="-35" y="-15" width="5" height="5" style="fill: white;"/>

      <rect x="-35" y="-10" width="5" height="5" style="fill: white;"/>

      <rect x="-35" y="-5" width="5" height="5" style="fill: white;"/>

      <rect x="-35" y="0" width="5" height="5" style="fill: white;"/>

      <rect x="-35" y="5" width="5" height="5" style="fill: white;"/>

      <rect x="-35" y="10" width="5" height="5" style="fill: white;"/>

      <rect x="-35" y="15" width="5" height="5" style="fill: white;"/>

      <rect x="-35" y="20" width="5" height="5" style="fill: white;"/>

      <rect x="-35" y="25" width="5" height="5" style="fill: white;"/>

      <rect x="-35" y="30" width="5" height="5" style="fill: white;"/>

      <rect x="-35" y="35" width="5" height="5" style="fill: white;"/>



      <rect x="-30" y="-40" width="5" height="5" style="fill: white;"/>

      <rect x="-30" y="-35" width="5" height="5" style="fill: white;"/>

      <rect x="-30" y="-30" width="5" height="5" style="fill: white;"/>

      <rect x="-30" y="-25" width="5" height="5" style="fill: white;"/>

      <rect x="-30" y="-20" width="5" height="5" style="fill: white;"/>

      <rect x="-30" y="-15" width="5" height="5" style="fill: white;"/>

      <rect x="-30" y="-10" width="5" height="5" style="fill: red;"/>

      <rect x="-30" y="-5" width="5" height="5" style="fill: red;"/>

      <rect x="-30" y="0" width="5" height="5" style="fill: red;"/>

      <rect x="-30" y="5" width="5" height="5" style="fill: red;"/>

      <rect x="-30" y="10" width="5" height="5" style="fill: white;"/>

      <rect x="-30" y="15" width="5" height="5" style="fill: white;"/>

      <rect x="-30" y="20" width="5" height="5" style="fill: white;"/>

      <rect x="-30" y="25" width="5" height="5" style="fill: white;"/>

      <rect x="-30" y="30" width="5" height="5" style="fill: white;"/>

      <rect x="-30" y="35" width="5" height="5" style="fill: white;"/>



      <rect x="-25" y="-40" width="5" height="5" style="fill: white;"/>

      <rect x="-25" y="-35" width="5" height="5" style="fill: white;"/>

      <rect x="-25" y="-30" width="5" height="5" style="fill: white;"/>

      <rect x="-25" y="-25" width="5" height="5" style="fill: white;"/>

      <rect x="-25" y="-20" width="5" height="5" style="fill: red;"/>

      <rect x="-25" y="-15" width="5" height="5" style="fill: red;"/>

      <rect x="-25" y="-10" width="5" height="5" style="fill: red;"/>

      <rect x="-25" y="-5" width="5" height="5" style="fill: red;"/>

      <rect x="-25" y="0" width="5" height="5" style="fill: red;"/>

      <rect x="-25" y="5" width="5" height="5" style="fill: red;"/>

      <rect x="-25" y="10" width="5" height="5" style="fill: red;"/>

      <rect x="-25" y="15" width="5" height="5" style="fill: red;"/>

      <rect x="-25" y="20" width="5" height="5" style="fill: white;"/>

      <rect x="-25" y="25" width="5" height="5" style="fill: white;"/>

      <rect x="-25" y="30" width="5" height="5" style="fill: white;"/>

      <rect x="-25" y="35" width="5" height="5" style="fill: white;"/>



      <rect x="-20" y="-40" width="5" height="5" style="fill: white;"/>

      <rect x="-20" y="-35" width="5" height="5" style="fill: white;"/>

      <rect x="-20" y="-30" width="5" height="5" style="fill: white;"/>

      <rect x="-20" y="-25" width="5" height="5" style="fill: red;"/>

      <rect x="-20" y="-20" width="5" height="5" style="fill: red;"/>

      <rect x="-20" y="-15" width="5" height="5" style="fill: red;"/>

      <rect x="-20" y="-10" width="5" height="5" style="fill: red;"/>

      <rect x="-20" y="-5" width="5" height="5" style="fill: red;"/>

      <rect x="-20" y="0" width="5" height="5" style="fill: red;"/>

      <rect x="-20" y="5" width="5" height="5" style="fill: red;"/>

      <rect x="-20" y="10" width="5" height="5" style="fill: red;"/>

      <rect x="-20" y="15" width="5" height="5" style="fill: red;"/>

      <rect x="-20" y="20" width="5" height="5" style="fill: red;"/>

      <rect x="-20" y="25" width="5" height="5" style="fill: white;"/>

      <rect x="-20" y="30" width="5" height="5" style="fill: white;"/>

      <rect x="-20" y="35" width="5" height="5" style="fill: white;"/>



      <rect x="-15" y="-40" width="5" height="5" style="fill: white;"/>

      <rect x="-15" y="-35" width="5" height="5" style="fill: white;"/>

      <rect x="-15" y="-30" width="5" height="5" style="fill: white;"/>

      <rect x="-15" y="-25" width="5" height="5" style="fill: red;"/>

      <rect x="-15" y="-20" width="5" height="5" style="fill: red;"/>

      <rect x="-15" y="-15" width="5" height="5" style="fill: red;"/>

      <rect x="-15" y="-10" width="5" height="5" style="fill: red;"/>

      <rect x="-15" y="-5" width="5" height="5" style="fill: red;"/>

      <rect x="-15" y="0" width="5" height="5" style="fill: red;"/>

      <rect x="-15" y="5" width="5" height="5" style="fill: red;"/>

      <rect x="-15" y="10" width="5" height="5" style="fill: red;"/>

      <rect x="-15" y="15" width="5" height="5" style="fill: red;"/>

      <rect x="-15" y="20" width="5" height="5" style="fill: red;"/>

      <rect x="-15" y="25" width="5" height="5" style="fill: white;"/>

      <rect x="-15" y="30" width="5" height="5" style="fill: white;"/>

      <rect x="-15" y="35" width="5" height="5" style="fill: white;"/>



      <rect x="-10" y="-40" width="5" height="5" style="fill: white;"/>

      <rect x="-10" y="-35" width="5" height="5" style="fill: white;"/>

      <rect x="-10" y="-30" width="5" height="5" style="fill: red;"/>

      <rect x="-10" y="-25" width="5" height="5" style="fill: red;"/>

      <rect x="-10" y="-20" width="5" height="5" style="fill: red;"/>

      <rect x="-10" y="-15" width="5" height="5" style="fill: red;"/>

      <rect x="-10" y="-10" width="5" height="5" style="fill: red;"/>

      <rect x="-10" y="-5" width="5" height="5" style="fill: red;"/>

      <rect x="-10" y="0" width="5" height="5" style="fill: red;"/>

      <rect x="-10" y="5" width="5" height="5" style="fill: red;"/>

      <rect x="-10" y="10" width="5" height="5" style="fill: red;"/>

      <rect x="-10" y="15" width="5" height="5" style="fill: red;"/>

      <rect x="-10" y="20" width="5" height="5" style="fill: red;"/>

      <rect x="-10" y="25" width="5" height="5" style="fill: red;"/>

      <rect x="-10" y="30" width="5" height="5" style="fill: white;"/>

      <rect x="-10" y="35" width="5" height="5" style="fill: white;"/>



      <rect x="-5" y="-40" width="5" height="5" style="fill: white;"/>

      <rect x="-5" y="-35" width="5" height="5" style="fill: white;"/>

      <rect x="-5" y="-30" width="5" height="5" style="fill: red;"/>

      <rect x="-5" y="-25" width="5" height="5" style="fill: red;"/>

      <rect x="-5" y="-20" width="5" height="5" style="fill: red;"/>

      <rect x="-5" y="-15" width="5" height="5" style="fill: red;"/>

      <rect x="-5" y="-10" width="5" height="5" style="fill: red;"/>

      <rect x="-5" y="-5" width="5" height="5" style="fill: red;"/>

      <rect x="-5" y="0" width="5" height="5" style="fill: red;"/>

      <rect x="-5" y="5" width="5" height="5" style="fill: red;"/>

      <rect x="-5" y="10" width="5" height="5" style="fill: red;"/>

      <rect x="-5" y="15" width="5" height="5" style="fill: red;"/>

      <rect x="-5" y="20" width="5" height="5" style="fill: red;"/>

      <rect x="-5" y="25" width="5" height="5" style="fill: red;"/>

      <rect x="-5" y="30" width="5" height="5" style="fill: white;"/>

      <rect x="-5" y="35" width="5" height="5" style="fill: white;"/>



      <rect x="0" y="-40" width="5" height="5" style="fill: white;"/>

      <rect x="0" y="-35" width="5" height="5" style="fill: white;"/>

      <rect x="0" y="-30" width="5" height="5" style="fill: red;"/>

      <rect x="0" y="-25" width="5" height="5" style="fill: red;"/>

      <rect x="0" y="-20" width="5" height="5" style="fill: red;"/>

      <rect x="0" y="-15" width="5" height="5" style="fill: red;"/>

      <rect x="0" y="-10" width="5" height="5" style="fill: red;"/>

      <rect x="0" y="-5" width="5" height="5" style="fill: red;"/>

      <rect x="0" y="0" width="5" height="5" style="fill: red;"/>

      <rect x="0" y="5" width="5" height="5" style="fill: red;"/>

      <rect x="0" y="10" width="5" height="5" style="fill: red;"/>

      <rect x="0" y="15" width="5" height="5" style="fill: red;"/>

      <rect x="0" y="20" width="5" height="5" style="fill: red;"/>

      <rect x="0" y="25" width="5" height="5" style="fill: red;"/>

      <rect x="0" y="30" width="5" height="5" style="fill: white;"/>

      <rect x="0" y="35" width="5" height="5" style="fill: white;"/>



      <rect x="5" y="-40" width="5" height="5" style="fill: white;"/>

      <rect x="5" y="-35" width="5" height="5" style="fill: white;"/>

      <rect x="5" y="-30" width="5" height="5" style="fill: red;"/>

      <rect x="5" y="-25" width="5" height="5" style="fill: red;"/>

      <rect x="5" y="-20" width="5" height="5" style="fill: red;"/>

      <rect x="5" y="-15" width="5" height="5" style="fill: red;"/>

      <rect x="5" y="-10" width="5" height="5" style="fill: red;"/>

      <rect x="5" y="-5" width="5" height="5" style="fill: red;"/>

      <rect x="5" y="0" width="5" height="5" style="fill: red;"/>

      <rect x="5" y="5" width="5" height="5" style="fill: red;"/>

      <rect x="5" y="10" width="5" height="5" style="fill: red;"/>

      <rect x="5" y="15" width="5" height="5" style="fill: red;"/>

      <rect x="5" y="20" width="5" height="5" style="fill: red;"/>

      <rect x="5" y="25" width="5" height="5" style="fill: red;"/>

      <rect x="5" y="30" width="5" height="5" style="fill: white;"/>

      <rect x="5" y="35" width="5" height="5" style="fill: white;"/>



      <rect x="10" y="-40" width="5" height="5" style="fill: white;"/>

      <rect x="10" y="-35" width="5" height="5" style="fill: white;"/>

      <rect x="10" y="-30" width="5" height="5" style="fill: white;"/>

      <rect x="10" y="-25" width="5" height="5" style="fill: red;"/>

      <rect x="10" y="-20" width="5" height="5" style="fill: red;"/>

      <rect x="10" y="-15" width="5" height="5" style="fill: red;"/>

      <rect x="10" y="-10" width="5" height="5" style="fill: red;"/>

      <rect x="10" y="-5" width="5" height="5" style="fill: red;"/>

      <rect x="10" y="0" width="5" height="5" style="fill: red;"/>

      <rect x="10" y="5" width="5" height="5" style="fill: red;"/>

      <rect x="10" y="10" width="5" height="5" style="fill: red;"/>

      <rect x="10" y="15" width="5" height="5" style="fill: red;"/>

      <rect x="10" y="20" width="5" height="5" style="fill: red;"/>

      <rect x="10" y="25" width="5" height="5" style="fill: white;"/>

      <rect x="10" y="30" width="5" height="5" style="fill: white;"/>

      <rect x="10" y="35" width="5" height="5" style="fill: white;"/>



      <rect x="15" y="-40" width="5" height="5" style="fill: white;"/>

      <rect x="15" y="-35" width="5" height="5" style="fill: white;"/>

      <rect x="15" y="-30" width="5" height="5" style="fill: white;"/>

      <rect x="15" y="-25" width="5" height="5" style="fill: red;"/>

      <rect x="15" y="-20" width="5" height="5" style="fill: red;"/>

      <rect x="15" y="-15" width="5" height="5" style="fill: red;"/>

      <rect x="15" y="-10" width="5" height="5" style="fill: red;"/>

      <rect x="15" y="-5" width="5" height="5" style="fill: red;"/>

      <rect x="15" y="0" width="5" height="5" style="fill: red;"/>

      <rect x="15" y="5" width="5" height="5" style="fill: red;"/>

      <rect x="15" y="10" width="5" height="5" style="fill: red;"/>

      <rect x="15" y="15" width="5" height="5" style="fill: red;"/>

      <rect x="15" y="20" width="5" height="5" style="fill: red;"/>

      <rect x="15" y="25" width="5" height="5" style="fill: white;"/>

      <rect x="15" y="30" width="5" height="5" style="fill: white;"/>

      <rect x="15" y="35" width="5" height="5" style="fill: white;"/>



      <rect x="20" y="-40" width="5" height="5" style="fill: white;"/>

      <rect x="20" y="-35" width="5" height="5" style="fill: white;"/>

      <rect x="20" y="-30" width="5" height="5" style="fill: white;"/>

      <rect x="20" y="-25" width="5" height="5" style="fill: white;"/>

      <rect x="20" y="-20" width="5" height="5" style="fill: red;"/>

      <rect x="20" y="-15" width="5" height="5" style="fill: red;"/>

      <rect x="20" y="-10" width="5" height="5" style="fill: red;"/>

      <rect x="20" y="-5" width="5" height="5" style="fill: red;"/>

      <rect x="20" y="0" width="5" height="5" style="fill: red;"/>

      <rect x="20" y="5" width="5" height="5" style="fill: red;"/>

      <rect x="20" y="10" width="5" height="5" style="fill: red;"/>

      <rect x="20" y="15" width="5" height="5" style="fill: red;"/>

      <rect x="20" y="20" width="5" height="5" style="fill: white;"/>

      <rect x="20" y="25" width="5" height="5" style="fill: white;"/>

      <rect x="20" y="30" width="5" height="5" style="fill: white;"/>

      <rect x="20" y="35" width="5" height="5" style="fill: white;"/>



      <rect x="25" y="-40" width="5" height="5" style="fill: white;"/>

      <rect x="25" y="-35" width="5" height="5" style="fill: white;"/>

      <rect x="25" y="-30" width="5" height="5" style="fill: white;"/>

      <rect x="25" y="-25" width="5" height="5" style="fill: white;"/>

      <rect x="25" y="-20" width="5" height="5" style="fill: white;"/>

      <rect x="25" y="-15" width="5" height="5" style="fill: white;"/>

      <rect x="25" y="-10" width="5" height="5" style="fill: red;"/>

      <rect x="25" y="-5" width="5" height="5" style="fill: red;"/>

      <rect x="25" y="0" width="5" height="5" style="fill: red;"/>

      <rect x="25" y="5" width="5" height="5" style="fill: red;"/>

      <rect x="25" y="10" width="5" height="5" style="fill: white;"/>

      <rect x="25" y="15" width="5" height="5" style="fill: white;"/>

      <rect x="25" y="20" width="5" height="5" style="fill: white;"/>

      <rect x="25" y="25" width="5" height="5" style="fill: white;"/>

      <rect x="25" y="30" width="5" height="5" style="fill: white;"/>

      <rect x="25" y="35" width="5" height="5" style="fill: white;"/>



      <rect x="30" y="-40" width="5" height="5" style="fill: white;"/>

      <rect x="30" y="-35" width="5" height="5" style="fill: white;"/>

      <rect x="30" y="-30" width="5" height="5" style="fill: white;"/>

      <rect x="30" y="-25" width="5" height="5" style="fill: white;"/>

      <rect x="30" y="-20" width="5" height="5" style="fill: white;"/>

      <rect x="30" y="-15" width="5" height="5" style="fill: white;"/>

      <rect x="30" y="-10" width="5" height="5" style="fill: white;"/>

      <rect x="30" y="-5" width="5" height="5" style="fill: white;"/>

      <rect x="30" y="0" width="5" height="5" style="fill: white;"/>

      <rect x="30" y="5" width="5" height="5" style="fill: white;"/>

      <rect x="30" y="10" width="5" height="5" style="fill: white;"/>

      <rect x="30" y="15" width="5" height="5" style="fill: white;"/>

      <rect x="30" y="20" width="5" height="5" style="fill: white;"/>

      <rect x="30" y="25" width="5" height="5" style="fill: white;"/>

      <rect x="30" y="30" width="5" height="5" style="fill: white;"/>

      <rect x="30" y="35" width="5" height="5" style="fill: white;"/>



      <rect x="35" y="-40" width="5" height="5" style="fill: white;"/>

      <rect x="35" y="-35" width="5" height="5" style="fill: white;"/>

      <rect x="35" y="-30" width="5" height="5" style="fill: white;"/>

      <rect x="35" y="-25" width="5" height="5" style="fill: white;"/>

      <rect x="35" y="-20" width="5" height="5" style="fill: white;"/>

      <rect x="35" y="-15" width="5" height="5" style="fill: white;"/>

      <rect x="35" y="-10" width="5" height="5" style="fill: white;"/>

      <rect x="35" y="-5" width="5" height="5" style="fill: white;"/>

      <rect x="35" y="0" width="5" height="5" style="fill: white;"/>

      <rect x="35" y="5" width="5" height="5" style="fill: white;"/>

      <rect x="35" y="10" width="5" height="5" style="fill: white;"/>

      <rect x="35" y="15" width="5" height="5" style="fill: white;"/>

      <rect x="35" y="20" width="5" height="5" style="fill: white;"/>

      <rect x="35" y="25" width="5" height="5" style="fill: white;"/>

      <rect x="35" y="30" width="5" height="5" style="fill: white;"/>

      <rect x="35" y="35" width="5" height="5" style="fill: white;"/>


  <circle r="30" class="d-fill-none d-thick"/>
</svg>
