<svg version="1.1" xmlns="http://www.w3.org/2000/svg" width="117mm" height="119mm" viewBox="-9 -9 117 119">
  <style>
  <![CDATA[
    rect, circle, ellipse, line, polyline, polygon, path { stroke-width: 0.5; stroke: black; }
    rect, circle, ellipse, polygon { fill: white; }
    line, polyline, path { fill: none; }
  ]]>
  </style>
  <circle cx="24" cy="52" r="5" style="fill:rgb(107, 31, 54)"/>
  <circle cx="63" cy="94" r="5" style="fill:rgb(180, 240, 70)"/>
  <circle cx="22" cy="33" r="5" style="fill:rgb(91, 37, 94)"/>
  <circle cx="16" cy="12" r="5" style="fill:rgb(73, 201, 2)"/>
  <circle cx="67" cy="73" r="5" style="fill:rgb(51, 165, 187)"/>
  <circle cx="50" cy="95" r="5" style="fill:rgb(228, 244, 192)"/>
  <circle cx="98" cy="97" r="5" style="fill:rgb(129, 53, 245)"/>
  <circle cx="63" cy="22" r="5" style="fill:rgb(34, 227, 83)"/>
  <circle cx="29" cy="10" r="5" style="fill:rgb(160, 185, 92)"/>
  <circle cx="1" cy="2" r="5" style="fill:rgb(150, 215, 117)"/>
  <circle cx="5" cy="43" r="5" style="fill:rgb(27, 199, 223)"/>
  <circle cx="44" cy="68" r="5" style="fill:rgb(41, 112, 176)"/>
  <circle cx="30" cy="27" r="5" style="fill:rgb(19, 5, 210)"/>
  <circle cx="5" cy="12" r="5" style="fill:rgb(99, 234, 179)"/>
  <circle cx="40" cy="23" r="5" style="fill:rgb(75, 216, 234)"/>
  <circle cx="48" cy="7" r="5" style="fill:rgb(70, 73, 62)"/>
  <circle cx="13" cy="81" r="5" style="fill:rgb(50, 197, 26)"/>
  <circle cx="86" cy="72" r="5" style="fill:rgb(109, 6, 125)"/>
  <circle cx="29" cy="28" r="5" style="fill:rgb(95, 143, 107)"/>
  <circle cx="17" cy="65" r="5" style="fill:rgb(159, 181, 146)"/>
  <circle cx="72" cy="38" r="5" style="fill:rgb(44, 144, 163)"/>
  <circle cx="40" cy="7" r="5" style="fill:rgb(215, 201, 52)"/>
  <circle cx="81" cy="54" r="5" style="fill:rgb(90, 79, 47)"/>
  <circle cx="60" cy="53" r="5" style="fill:rgb(46, 1, 201)"/>
  <circle cx="16" cy="76" r="5" style="fill:rgb(68, 7, 187)"/>
  <circle cx="35" cy="100" r="5" style="fill:rgb(130, 83, 10)"/>
  <circle cx="74" cy="70" r="5" style="fill:rgb(231, 133, 202)"/>
  <circle cx="28" cy="82" r="5" style="fill:rgb(248, 156, 152)"/>
  <circle cx="90" cy="78" r="5" style="fill:rgb(78, 112, 213)"/>
  <circle cx="67" cy="97" r="5" style="fill:rgb(49, 153, 150)"/>
  <circle cx="97" cy="82" r="5" style="fill:rgb(103, 175, 82)"/>
  <circle cx="20" cy="50" r="5" style="fill:rgb(143, 128, 178)"/>
  <circle cx="30" cy="60" r="5" style="fill:rgb(33, 101, 233)"/>
  <circle cx="57" cy="97" r="5" style="fill:rgb(145, 24, 225)"/>
  <circle cx="64" cy="11" r="5" style="fill:rgb(19, 100, 98)"/>
  <circle cx="95" cy="77" r="5" style="fill:rgb(203, 128, 79)"/>
  <circle cx="44" cy="80" r="5" style="fill:rgb(78, 112, 17)"/>
  <circle cx="36" cy="88" r="5" style="fill:rgb(69, 139, 51)"/>
  <circle cx="8" cy="11" r="5" style="fill:rgb(100, 120, 207)"/>
  <circle cx="68" cy="66" r="5" style="fill:rgb(78, 0, 59)"/>
  <circle cx="89" cy="30" r="5" style="fill:rgb(108, 50, 210)"/>
  <circle cx="64" cy="5" r="5" style="fill:rgb(107, 134, 142)"/>
  <circle cx="61" cy="42" r="5" style="fill:rgb(55, 211, 172)"/>
  <circle cx="16" cy="85" r="5" style="fill:rgb(123, 82, 113)"/>
  <circle cx="76" cy="1" r="5" style="fill:rgb(2, 124, 187)"/>
  <circle cx="33" cy="20" r="5" style="fill:rgb(252, 134, 162)"/>
  <circle cx="15" cy="46" r="5" style="fill:rgb(65, 88, 214)"/>
  <circle cx="81" cy="49" r="5" style="fill:rgb(122, 220, 147)"/>
  <circle cx="29" cy="66" r="5" style="fill:rgb(209, 179, 200)"/>
  <circle cx="64" cy="16" r="5" style="fill:rgb(252, 41, 147)"/>
</svg>
