<svg version="1.1" xmlns="http://www.w3.org/2000/svg" width="117mm" height="120mm" viewBox="-10 -10 117 120">
  <style>
  <![CDATA[
    svg { background: none; }
    rect, circle, ellipse, polygon { stroke-width: 0.5; fill: white; stroke: black; }
    line, polyline, path { stroke-width: 0.5; fill: none; stroke: black; }
  ]]>
  </style>
  <circle cx="60" cy="24" r="5" style="fill:rgb(200, 157, 118)"/>
  <circle cx="11" cy="48" r="5" style="fill:rgb(70, 162, 8)"/>
  <circle cx="18" cy="23" r="5" style="fill:rgb(41, 51, 66)"/>
  <circle cx="13" cy="95" r="5" style="fill:rgb(232, 161, 198)"/>
  <circle cx="87" cy="100" r="5" style="fill:rgb(22, 37, 114)"/>
  <circle cx="17" cy="70" r="5" style="fill:rgb(201, 40, 153)"/>
  <circle cx="38" cy="24" r="5" style="fill:rgb(249, 101, 68)"/>
  <circle cx="43" cy="4" r="5" style="fill:rgb(27, 171, 243)"/>
  <circle cx="36" cy="64" r="5" style="fill:rgb(11, 222, 167)"/>
  <circle cx="22" cy="7" r="5" style="fill:rgb(111, 25, 89)"/>
  <circle cx="97" cy="67" r="5" style="fill:rgb(133, 223, 13)"/>
  <circle cx="68" cy="77" r="5" style="fill:rgb(59, 172, 199)"/>
  <circle cx="0" cy="46" r="5" style="fill:rgb(77, 223, 21)"/>
  <circle cx="85" cy="69" r="5" style="fill:rgb(79, 110, 21)"/>
  <circle cx="97" cy="43" r="5" style="fill:rgb(124, 199, 25)"/>
  <circle cx="12" cy="22" r="5" style="fill:rgb(133, 91, 147)"/>
  <circle cx="51" cy="55" r="5" style="fill:rgb(40, 149, 177)"/>
  <circle cx="6" cy="96" r="5" style="fill:rgb(39, 245, 137)"/>
  <circle cx="28" cy="35" r="5" style="fill:rgb(130, 134, 55)"/>
  <circle cx="78" cy="0" r="5" style="fill:rgb(202, 212, 187)"/>
  <circle cx="71" cy="64" r="5" style="fill:rgb(201, 37, 100)"/>
  <circle cx="47" cy="45" r="5" style="fill:rgb(247, 185, 149)"/>
  <circle cx="78" cy="96" r="5" style="fill:rgb(97, 219, 129)"/>
  <circle cx="78" cy="94" r="5" style="fill:rgb(46, 2, 233)"/>
  <circle cx="78" cy="16" r="5" style="fill:rgb(218, 74, 70)"/>
  <circle cx="39" cy="61" r="5" style="fill:rgb(104, 20, 34)"/>
  <circle cx="7" cy="21" r="5" style="fill:rgb(73, 132, 209)"/>
  <circle cx="34" cy="99" r="5" style="fill:rgb(30, 145, 54)"/>
  <circle cx="4" cy="81" r="5" style="fill:rgb(78, 66, 15)"/>
  <circle cx="18" cy="98" r="5" style="fill:rgb(174, 1, 138)"/>
  <circle cx="10" cy="62" r="5" style="fill:rgb(164, 218, 91)"/>
  <circle cx="77" cy="13" r="5" style="fill:rgb(72, 115, 241)"/>
  <circle cx="97" cy="31" r="5" style="fill:rgb(23, 6, 135)"/>
  <circle cx="83" cy="57" r="5" style="fill:rgb(71, 8, 29)"/>
  <circle cx="16" cy="99" r="5" style="fill:rgb(215, 168, 176)"/>
  <circle cx="74" cy="85" r="5" style="fill:rgb(173, 112, 11)"/>
  <circle cx="87" cy="3" r="5" style="fill:rgb(18, 245, 14)"/>
  <circle cx="28" cy="94" r="5" style="fill:rgb(139, 136, 253)"/>
  <circle cx="50" cy="75" r="5" style="fill:rgb(30, 119, 248)"/>
  <circle cx="3" cy="72" r="5" style="fill:rgb(148, 85, 58)"/>
  <circle cx="31" cy="48" r="5" style="fill:rgb(84, 184, 15)"/>
  <circle cx="0" cy="51" r="5" style="fill:rgb(3, 148, 24)"/>
  <circle cx="69" cy="75" r="5" style="fill:rgb(28, 209, 205)"/>
  <circle cx="29" cy="11" r="5" style="fill:rgb(251, 8, 130)"/>
  <circle cx="58" cy="19" r="5" style="fill:rgb(32, 241, 127)"/>
  <circle cx="77" cy="6" r="5" style="fill:rgb(99, 213, 195)"/>
  <circle cx="90" cy="77" r="5" style="fill:rgb(11, 57, 229)"/>
  <circle cx="47" cy="81" r="5" style="fill:rgb(122, 191, 114)"/>
  <circle cx="0" cy="69" r="5" style="fill:rgb(89, 139, 154)"/>
  <circle cx="67" cy="60" r="5" style="fill:rgb(114, 52, 140)"/>
  </svg>
