<svg version="1.1" xmlns="http://www.w3.org/2000/svg" width="110mm" height="118mm" viewBox="-5 -10 110 118">
  <style>
  <![CDATA[
    rect, circle, ellipse, line, polyline, polygon, path { stroke-width: 0.5; stroke: black; }
    rect, circle, ellipse, polygon { fill: white; }
    line, polyline, path { fill: none; }
  ]]>
  </style>
  <circle cx="24" cy="52" r="5" style="fill:rgb(142, 107, 31)"/>
  <circle cx="21" cy="63" r="5" style="fill:rgb(9, 237, 179)"/>
  <circle cx="28" cy="65" r="5" style="fill:rgb(33, 226, 239)"/>
  <circle cx="19" cy="16" r="5" style="fill:rgb(250, 70, 57)"/>
  <circle cx="35" cy="76" r="5" style="fill:rgb(246, 37, 203)"/>
  <circle cx="12" cy="57" r="5" style="fill:rgb(249, 204, 143)"/>
  <circle cx="16" cy="12" r="5" style="fill:rgb(72, 27, 200)"/>
  <circle cx="5" cy="72" r="5" style="fill:rgb(162, 51, 164)"/>
  <circle cx="73" cy="49" r="5" style="fill:rgb(241, 227, 243)"/>
  <circle cx="75" cy="97" r="5" style="fill:rgb(246, 128, 53)"/>
  <circle cx="95" cy="63" r="5" style="fill:rgb(47, 57, 34)"/>
  <circle cx="88" cy="32" r="5" style="fill:rgb(74, 25, 159)"/>
  <circle cx="44" cy="72" r="5" style="fill:rgb(131, 91, 2)"/>
  <circle cx="21" cy="2" r="5" style="fill:rgb(192, 149, 181)"/>
  <circle cx="84" cy="5" r="5" style="fill:rgb(109, 27, 144)"/>
  <circle cx="35" cy="3" r="5" style="fill:rgb(251, 198, 222)"/>
  <circle cx="67" cy="16" r="5" style="fill:rgb(115, 111, 233)"/>
  <circle cx="68" cy="29" r="5" style="fill:rgb(69, 18, 226)"/>
  <circle cx="66" cy="85" r="5" style="fill:rgb(5, 209, 13)"/>
  <circle cx="76" cy="12" r="5" style="fill:rgb(140, 110, 98)"/>
  <circle cx="91" cy="98" r="5" style="fill:rgb(192, 178, 102)"/>
  <circle cx="23" cy="22" r="5" style="fill:rgb(111, 75, 215)"/>
  <circle cx="24" cy="91" r="5" style="fill:rgb(122, 232, 55)"/>
  <circle cx="22" cy="7" r="5" style="fill:rgb(69, 72, 20)"/>
  <circle cx="24" cy="13" r="5" style="fill:rgb(205, 96, 50)"/>
  <circle cx="65" cy="10" r="5" style="fill:rgb(218, 108, 6)"/>
  <circle cx="29" cy="28" r="5" style="fill:rgb(107, 59, 95)"/>
  <circle cx="71" cy="69" r="5" style="fill:rgb(248, 75, 164)"/>
  <circle cx="65" cy="77" r="5" style="fill:rgb(158, 180, 250)"/>
  <circle cx="59" cy="65" r="5" style="fill:rgb(103, 145, 183)"/>
  <circle cx="38" cy="22" r="5" style="fill:rgb(44, 143, 122)"/>
  <circle cx="63" cy="87" r="5" style="fill:rgb(18, 214, 200)"/>
  <circle cx="20" cy="80" r="5" style="fill:rgb(136, 179, 184)"/>
  <circle cx="35" cy="18" r="5" style="fill:rgb(152, 134, 45)"/>
  <circle cx="44" cy="0" r="5" style="fill:rgb(231, 200, 40)"/>
  <circle cx="75" cy="27" r="5" style="fill:rgb(67, 58, 7)"/>
  <circle cx="33" cy="73" r="5" style="fill:rgb(242, 191, 78)"/>
  <circle cx="21" cy="35" r="5" style="fill:rgb(253, 21, 129)"/>
  <circle cx="32" cy="8" r="5" style="fill:rgb(87, 191, 10)"/>
  <circle cx="73" cy="69" r="5" style="fill:rgb(148, 230, 18)"/>
  <circle cx="29" cy="52" r="5" style="fill:rgb(43, 201, 72)"/>
  <circle cx="81" cy="56" r="5" style="fill:rgb(241, 247, 89)"/>
  <circle cx="26" cy="44" r="5" style="fill:rgb(155, 84, 151)"/>
  <circle cx="89" cy="78" r="5" style="fill:rgb(78, 112, 212)"/>
  <circle cx="67" cy="96" r="5" style="fill:rgb(49, 186, 152)"/>
  <circle cx="58" cy="96" r="5" style="fill:rgb(207, 38, 228)"/>
  <circle cx="40" cy="38" r="5" style="fill:rgb(227, 29, 236)"/>
  <circle cx="68" cy="57" r="5" style="fill:rgb(81, 51, 249)"/>
  <circle cx="50" cy="50" r="5" style="fill:rgb(44, 184, 177)"/>
  <circle cx="29" cy="60" r="5" style="fill:rgb(33, 140, 100)"/>
</svg>
