<svg version="1.1" xmlns="http://www.w3.org/2000/svg" width="65mm" height="65mm" viewBox="-5 -5 65 65">
  <defs>
   <marker id="arrow" refX="1" refY="0.5" orient="auto-start-reverse" markerWidth="5" markerHeight="5" viewBox="0 0 1 1">
     <path d="M 0 0 1 0.5 0 1" style="stroke-width: 0.2;"/>
   </marker>
  </defs>
  <style>
    <![CDATA[
        rect, line {
            stroke-width: 0.5;
            stroke: black;
            fill: white;
        }
        text {
            font-family: "Ubuntu Mono", monospace;
            font-size: 3px;
        }
        /* prior to top/bottom/left/right so they can override this */
        text { dominant-baseline: central; text-anchor: middle; }
        text.d-text-top { dominant-baseline: text-before-edge; }
        text.d-text-bottom { dominant-baseline: text-after-edge; }
        text.d-text-left { text-anchor: start; }
        text.d-text-right { text-anchor: end; }
    ]]>
  </style>

  <rect x="0" y="0" width="15" height="15"/>
  <text x="1" y="1" class="d-tbox d-text-top d-text-left">Hi!</text>
  <rect x="20" y="0" width="15" height="15"/>
  <text x="27.5" y="1" class="d-tbox d-text-top">Hi!</text>
  <rect x="40" y="0" width="15" height="15"/>
  <text x="54" y="1" class="d-tbox d-text-top d-text-right">Hi!</text>

  <rect x="0" y="20" width="15" height="15"/>
  <text x="1" y="27.5" class="d-tbox d-text-left">Hi!</text>
  <rect x="20" y="20" width="15" height="15"/>
  <text x="27.5" y="27.5" class="d-tbox">Hi!</text>
  <rect x="40" y="20" width="15" height="15"/>
  <text x="54" y="27.5" class="d-tbox d-text-right">Hi!</text>

  <rect x="0" y="40" width="15" height="15"/>
  <text x="1" y="54" class="d-tbox d-text-bottom d-text-left">Hi!</text>
  <rect x="20" y="40" width="15" height="15"/>
  <text x="27.5" y="54" class="d-tbox d-text-bottom">Hi!</text>
  <rect x="40" y="40" width="15" height="15"/>
  <text x="54" y="54" class="d-tbox d-text-bottom d-text-right">Hi!</text>
</svg>
