<svg version="1.1" xmlns="http://www.w3.org/2000/svg" width="50.6mm" height="104.5mm" viewBox="-12.3 -14.75 50.6 104.5">
  <style>
    <![CDATA[
    * { stroke-width: 0.2; fill: none; stroke: black; }
    ]]>
  </style>
  <rect x="0" y="0" width="5" height="5"/>
  <rect x="0" y="7" width="5" height="5"/>
  <rect x="0" y="14" width="5" height="5"/>
  <rect x="0" y="21" width="5" height="5"/>
  <rect x="0" y="28" width="5" height="5"/>
  <rect x="0" y="35" width="5" height="5"/>
  <rect x="0" y="42" width="5" height="5"/>
  <rect x="0" y="49" width="5" height="5"/>
  <rect x="0" y="56" width="5" height="5"/>
  <rect x="0" y="63" width="5" height="5"/>
  <rect x="7" y="0" width="5" height="5"/>
  <rect x="7" y="7" width="5" height="5"/>
  <rect x="7" y="14" width="5" height="5"/>
  <rect x="7" y="21" width="5" height="5"/>
  <rect x="7" y="28" width="5" height="5"/>
  <rect x="7" y="35" width="5" height="5"/>
  <rect x="7" y="42" width="5" height="5"/>
  <rect x="14" y="0" width="5" height="5"/>
  <rect x="14" y="7" width="5" height="5"/>
  <rect x="14" y="14" width="5" height="5"/>
  <rect x="14" y="21" width="5" height="5"/>
  <rect x="14" y="28" width="5" height="5"/>
  <rect x="14" y="35" width="5" height="5"/>
  <rect x="14" y="42" width="5" height="5"/>
  <rect x="14" y="49" width="5" height="5"/>
  <rect x="21" y="0" width="5" height="5"/>
  <rect x="21" y="7" width="5" height="5"/>
  <rect x="21" y="14" width="5" height="5"/>
  <rect x="21" y="21" width="5" height="5"/>
  <rect x="21" y="28" width="5" height="5"/>
  <rect x="21" y="35" width="5" height="5"/>
  <rect x="21" y="42" width="5" height="5"/>
  <rect x="21" y="49" width="5" height="5"/>
  <rect x="21" y="56" width="5" height="5"/>
  <rect x="21" y="63" width="5" height="5"/>
  <rect x="21" y="70" width="5" height="5"/>
</svg>
