<svg version="1.1" xmlns="http://www.w3.org/2000/svg" width="56mm" height="74mm" viewBox="5 1 56 74">
  <style>
  <![CDATA[
    svg { background: none; }
    .d-surround { fill: none; }
    svg * { stroke-linecap: round; stroke-linejoin: round; }
    rect, circle, ellipse, polygon { stroke-width: 0.5; fill: white; stroke: black; }
    line, polyline, path { stroke-width: 0.5; fill: none; stroke: black; }
    text, tspan { stroke-width: 0; font-family: sans-serif; font-size: 3px; fill: black; paint-order: stroke; stroke: white; }
  ]]>
  </style>
  <!-- Draw a 'pipeline' shape using a path element -->
  <style>
    .coin { fill: gold; stroke: silver; }
  </style>

  <path d="M 10 12.5
      a 5 2.5 0 0 0 10 0
      a 5 2.5 0 0 0 -10 0
      v 35
      a 5 2.5 0 0 0 10 0
      v -35" style="fill:red" class="pipeline"/>

  <path id="p1" d="M 30 15
      a 10 5 0 0 0 20 0
      a 10 5 0 0 0 -20 0
      v 3
      a 10 5 0 0 0 20 0
      v -3" class="coin pipeline"/>

  <path id="p2" d="M 30 30
      a 10 5 0 0 0 20 0
      a 10 5 0 0 0 -20 0
      v 10
      a 10 5 0 0 0 20 0
      v -10" style="stroke-width: 0.1; fill: limegreen;" class="pipeline"/>

  <rect id="border" x="26" y="8" width="28" height="39" class="d-surround"/>
  <path d="M 26 8 l 2 -2 h 28 l -2 2 z M 54 8 v 39 l 2 -2 v -39 z" style="fill:lightgrey" class="box3d"/>

  <rect id="box" x="10" y="60" width="40" height="10"/>
  <path d="M 10 60 l 2 -2 h 40 l -2 2 z M 50 60 v 10 l 2 -2 v -10 z" style="fill:lightgrey" class="box3d"/>
</svg>
