<svg version="1.1" xmlns="http://www.w3.org/2000/svg" width="164mm" height="164mm" viewBox="-90 -89 164 164">
  <style>
    <![CDATA[
      line, polyline, path { stroke-width: 0.5; fill: none; stroke: black; }
    ]]>
  </style>
  <path d="m0 0h6l5.909 1.042l5.638 2.052l5.196 3l4.596 3.857l3.857 4.596l3 5.196l2.052 5.638l1.042 5.909l0 6l-1.042 5.909l-2.052 5.638l-3 5.196l-3.857 4.596l-4.596 3.857l-5.196 3l-5.638 2.052l-5.909 1.042l-6 0l-5.909 -1.042l-5.638 -2.052l-5.196 -3l-4.596 -3.857l-3.857 -4.596l-3 -5.196l-2.052 -5.638l-1.042 -5.909l0 -6l1.042 -5.909l2.052 -5.638l3 -5.196l3.857 -4.596l4.596 -3.857l5.196 -3l2.052 5.638l1.042 5.909l0 6l-1.042 5.909l-2.052 5.638l-3 5.196l-3.857 4.596l-4.596 3.857l-5.196 3l-5.638 2.052l-5.909 1.042l-6 0l-5.909 -1.042l-5.638 -2.052l-5.196 -3l-4.596 -3.857l-3.857 -4.596l-3 -5.196l-2.052 -5.638l-1.042 -5.909l0 -6l1.042 -5.909l2.052 -5.638l3 -5.196l3.857 -4.596l4.596 -3.857l5.196 -3l5.638 -2.052l5.909 -1.042l6 0l5.909 1.042l5.638 2.052l5.196 3l4.596 3.857l-4.596 3.857l-5.196 3l-5.638 2.052l-5.909 1.042l-6 0l-5.909 -1.042l-5.638 -2.052l-5.196 -3l-4.596 -3.857l-3.857 -4.596l-3 -5.196l-2.052 -5.638l-1.042 -5.909l0 -6l1.042 -5.909l2.052 -5.638l3 -5.196l3.857 -4.596l4.596 -3.857l5.196 -3l5.638 -2.052l5.909 -1.042l6 0l5.909 1.042l5.638 2.052l5.196 3l4.596 3.857l3.857 4.596l3 5.196l2.052 5.638l1.042 5.909l0 6l-1.042 5.909l-2.052 5.638l-5.196 -3l-4.596 -3.857l-3.857 -4.596l-3 -5.196l-2.052 -5.638l-1.042 -5.909l0 -6l1.042 -5.909l2.052 -5.638l3 -5.196l3.857 -4.596l4.596 -3.857l5.196 -3l5.638 -2.052l5.909 -1.042l6 0l5.909 1.042l5.638 2.052l5.196 3l4.596 3.857l3.857 4.596l3 5.196l2.052 5.638l1.042 5.909l0 6l-1.042 5.909l-2.052 5.638l-3 5.196l-3.857 4.596l-4.596 3.857l-5.196 3l-5.638 2.052l-5.909 1.042l-6 0l1.042 -5.909l2.052 -5.638l3 -5.196l3.857 -4.596l4.596 -3.857l5.196 -3l5.638 -2.052l5.909 -1.042l6 0l5.909 1.042l5.638 2.052l5.196 3l4.596 3.857l3.857 4.596l3 5.196l2.052 5.638l1.042 5.909l0 6l-1.042 5.909l-2.052 5.638l-3 5.196l-3.857 4.596l-4.596 3.857l-5.196 3l-5.638 2.052l-5.909 1.042l-6 0l-5.909 -1.042l-5.638 -2.052l-5.196 -3l-4.596 -3.857l-3.857 -4.596l-3 -5.196l-2.052 -5.638l5.909 -1.042l6 0l5.909 1.042l5.638 2.052l5.196 3l4.596 3.857l3.857 4.596l3 5.196l2.052 5.638l1.042 5.909l0 6l-1.042 5.909l-2.052 5.638l-3 5.196l-3.857 4.596l-4.596 3.857l-5.196 3l-5.638 2.052l-5.909 1.042l-6 0l-5.909 -1.042l-5.638 -2.052l-5.196 -3l-4.596 -3.857l-3.857 -4.596l-3 -5.196l-2.052 -5.638l-1.042 -5.909l0 -6l1.042 -5.909l2.052 -5.638l3 -5.196l3.857 -4.596l4.596 -3.857l3 5.196l2.052 5.638l1.042 5.909l0 6l-1.042 5.909l-2.052 5.638l-3 5.196l-3.857 4.596l-4.596 3.857l-5.196 3l-5.638 2.052l-5.909 1.042l-6 0l-5.909 -1.042l-5.638 -2.052l-5.196 -3l-4.596 -3.857l-3.857 -4.596l-3 -5.196l-2.052 -5.638l-1.042 -5.909l0 -6l1.042 -5.909l2.052 -5.638l3 -5.196l3.857 -4.596l4.596 -3.857l5.196 -3l5.638 -2.052l5.909 -1.042l6 0l5.909 1.042l5.638 2.052l5.196 3l-3.857 4.596l-4.596 3.857l-5.196 3l-5.638 2.052l-5.909 1.042l-6 0l-5.909 -1.042l-5.638 -2.052l-5.196 -3l-4.596 -3.857l-3.857 -4.596l-3 -5.196l-2.052 -5.638l-1.042 -5.909l0 -6l1.042 -5.909l2.052 -5.638l3 -5.196l3.857 -4.596l4.596 -3.857l5.196 -3l5.638 -2.052l5.909 -1.042l6 0l5.909 1.042l5.638 2.052l5.196 3l4.596 3.857l3.857 4.596l3 5.196l2.052 5.638l1.042 5.909l0 6l-1.042 5.909l-5.638 -2.052l-5.196 -3l-4.596 -3.857l-3.857 -4.596l-3 -5.196l-2.052 -5.638l-1.042 -5.909l0 -6l1.042 -5.909l2.052 -5.638l3 -5.196l3.857 -4.596l4.596 -3.857l5.196 -3l5.638 -2.052l5.909 -1.042l6 0l5.909 1.042l5.638 2.052l5.196 3l4.596 3.857l3.857 4.596l3 5.196l2.052 5.638l1.042 5.909l0 6l-1.042 5.909l-2.052 5.638l-3 5.196l-3.857 4.596l-4.596 3.857l-5.196 3l-5.638 2.052l-5.909 1.042l0 -6l1.042 -5.909l2.052 -5.638l3 -5.196l3.857 -4.596l4.596 -3.857l5.196 -3l5.638 -2.052l5.909 -1.042l6 0l5.909 1.042l5.638 2.052l5.196 3l4.596 3.857l3.857 4.596l3 5.196l2.052 5.638l1.042 5.909l0 6l-1.042 5.909l-2.052 5.638l-3 5.196l-3.857 4.596l-4.596 3.857l-5.196 3l-5.638 2.052l-5.909 1.042l-6 0l-5.909 -1.042l-5.638 -2.052l-5.196 -3l-4.596 -3.857l-3.857 -4.596l-3 -5.196l5.638 -2.052l5.909 -1.042l6 0l5.909 1.042l5.638 2.052l5.196 3l4.596 3.857l3.857 4.596l3 5.196l2.052 5.638l1.042 5.909l0 6l-1.042 5.909l-2.052 5.638l-3 5.196l-3.857 4.596l-4.596 3.857l-5.196 3l-5.638 2.052l-5.909 1.042l-6 0l-5.909 -1.042l-5.638 -2.052l-5.196 -3l-4.596 -3.857l-3.857 -4.596l-3 -5.196l-2.052 -5.638l-1.042 -5.909l0 -6l1.042 -5.909l2.052 -5.638l3 -5.196l3.857 -4.596l3.857 4.596l3 5.196l2.052 5.638l1.042 5.909l0 6l-1.042 5.909l-2.052 5.638l-3 5.196l-3.857 4.596l-4.596 3.857l-5.196 3l-5.638 2.052l-5.909 1.042l-6 0l-5.909 -1.042l-5.638 -2.052l-5.196 -3l-4.596 -3.857l-3.857 -4.596l-3 -5.196l-2.052 -5.638l-1.042 -5.909l0 -6l1.042 -5.909l2.052 -5.638l3 -5.196l3.857 -4.596l4.596 -3.857l5.196 -3l5.638 -2.052l5.909 -1.042l6 0l5.909 1.042l5.638 2.052l-3 5.196l-3.857 4.596l-4.596 3.857l-5.196 3l-5.638 2.052l-5.909 1.042l-6 0l-5.909 -1.042l-5.638 -2.052l-5.196 -3l-4.596 -3.857l-3.857 -4.596l-3 -5.196l-2.052 -5.638l-1.042 -5.909l0 -6l1.042 -5.909l2.052 -5.638l3 -5.196l3.857 -4.596l4.596 -3.857l5.196 -3l5.638 -2.052l5.909 -1.042l6 0l5.909 1.042l5.638 2.052l5.196 3l4.596 3.857l3.857 4.596l3 5.196l2.052 5.638l1.042 5.909l0 6l-5.909 -1.042l-5.638 -2.052l-5.196 -3l-4.596 -3.857l-3.857 -4.596l-3 -5.196l-2.052 -5.638l-1.042 -5.909l0 -6l1.042 -5.909l2.052 -5.638l3 -5.196l3.857 -4.596l4.596 -3.857l5.196 -3l5.638 -2.052l5.909 -1.042l6 0l5.909 1.042l5.638 2.052l5.196 3l4.596 3.857l3.857 4.596l3 5.196l2.052 5.638l1.042 5.909l0 6l-1.042 5.909l-2.052 5.638l-3 5.196l-3.857 4.596l-4.596 3.857l-5.196 3l-5.638 2.052l-1.042 -5.909l0 -6l1.042 -5.909l2.052 -5.638l3 -5.196l3.857 -4.596l4.596 -3.857l5.196 -3l5.638 -2.052l5.909 -1.042l6 0l5.909 1.042l5.638 2.052l5.196 3l4.596 3.857l3.857 4.596l3 5.196l2.052 5.638l1.042 5.909l0 6l-1.042 5.909l-2.052 5.638l-3 5.196l-3.857 4.596l-4.596 3.857l-5.196 3l-5.638 2.052l-5.909 1.042l-6 0l-5.909 -1.042l-5.638 -2.052l-5.196 -3l-4.596 -3.857l-3.857 -4.596l5.196 -3l5.638 -2.052l5.909 -1.042l6 0l5.909 1.042l5.638 2.052l5.196 3l4.596 3.857l3.857 4.596l3 5.196l2.052 5.638l1.042 5.909l0 6l-1.042 5.909l-2.052 5.638l-3 5.196l-3.857 4.596l-4.596 3.857l-5.196 3l-5.638 2.052l-5.909 1.042l-6 0l-5.909 -1.042l-5.638 -2.052l-5.196 -3l-4.596 -3.857l-3.857 -4.596l-3 -5.196l-2.052 -5.638l-1.042 -5.909l0 -6l1.042 -5.909l2.052 -5.638l3 -5.196l4.596 3.857l3.857 4.596l3 5.196l2.052 5.638l1.042 5.909l0 6l-1.042 5.909l-2.052 5.638l-3 5.196l-3.857 4.596l-4.596 3.857l-5.196 3l-5.638 2.052l-5.909 1.042l-6 0l-5.909 -1.042l-5.638 -2.052l-5.196 -3l-4.596 -3.857l-3.857 -4.596l-3 -5.196l-2.052 -5.638l-1.042 -5.909l0 -6l1.042 -5.909l2.052 -5.638l3 -5.196l3.857 -4.596l4.596 -3.857l5.196 -3l5.638 -2.052l5.909 -1.042l6 0l5.909 1.042l-2.052 5.638l-3 5.196l-3.857 4.596l-4.596 3.857l-5.196 3l-5.638 2.052l-5.909 1.042l-6 0l-5.909 -1.042l-5.638 -2.052l-5.196 -3l-4.596 -3.857l-3.857 -4.596l-3 -5.196l-2.052 -5.638l-1.042 -5.909l0 -6l1.042 -5.909l2.052 -5.638l3 -5.196l3.857 -4.596l4.596 -3.857l5.196 -3l5.638 -2.052l5.909 -1.042l6 0l5.909 1.042l5.638 2.052l5.196 3l4.596 3.857l3.857 4.596l3 5.196l2.052 5.638l1.042 5.909l-6 0l-5.909 -1.042l-5.638 -2.052l-5.196 -3l-4.596 -3.857l-3.857 -4.596l-3 -5.196l-2.052 -5.638l-1.042 -5.909l0 -6l1.042 -5.909l2.052 -5.638l3 -5.196l3.857 -4.596l4.596 -3.857l5.196 -3l5.638 -2.052l5.909 -1.042l6 0l5.909 1.042l5.638 2.052l5.196 3l4.596 3.857l3.857 4.596l3 5.196l2.052 5.638l1.042 5.909l0 6l-1.042 5.909l-2.052 5.638l-3 5.196l-3.857 4.596l-4.596 3.857l-5.196 3l-2.052 -5.638l-1.042 -5.909l0 -6l1.042 -5.909l2.052 -5.638l3 -5.196l3.857 -4.596l4.596 -3.857l5.196 -3l5.638 -2.052l5.909 -1.042l6 0l5.909 1.042l5.638 2.052l5.196 3l4.596 3.857l3.857 4.596l3 5.196l2.052 5.638l1.042 5.909l0 6l-1.042 5.909l-2.052 5.638l-3 5.196l-3.857 4.596l-4.596 3.857l-5.196 3l-5.638 2.052l-5.909 1.042l-6 0l-5.909 -1.042l-5.638 -2.052l-5.196 -3l-4.596 -3.857l4.596 -3.857l5.196 -3l5.638 -2.052l5.909 -1.042l6 0l5.909 1.042l5.638 2.052l5.196 3l4.596 3.857l3.857 4.596l3 5.196l2.052 5.638l1.042 5.909l0 6l-1.042 5.909l-2.052 5.638l-3 5.196l-3.857 4.596l-4.596 3.857l-5.196 3l-5.638 2.052l-5.909 1.042l-6 0l-5.909 -1.042l-5.638 -2.052l-5.196 -3l-4.596 -3.857l-3.857 -4.596l-3 -5.196l-2.052 -5.638l-1.042 -5.909l0 -6l1.042 -5.909l2.052 -5.638l5.196 3l4.596 3.857l3.857 4.596l3 5.196l2.052 5.638l1.042 5.909l0 6l-1.042 5.909l-2.052 5.638l-3 5.196l-3.857 4.596l-4.596 3.857l-5.196 3l-5.638 2.052l-5.909 1.042l-6 0l-5.909 -1.042l-5.638 -2.052l-5.196 -3l-4.596 -3.857l-3.857 -4.596l-3 -5.196l-2.052 -5.638l-1.042 -5.909l0 -6l1.042 -5.909l2.052 -5.638l3 -5.196l3.857 -4.596l4.596 -3.857l5.196 -3l5.638 -2.052l5.909 -1.042l6 0l-1.042 5.909l-2.052 5.638l-3 5.196l-3.857 4.596l-4.596 3.857l-5.196 3l-5.638 2.052l-5.909 1.042l-6 0l-5.909 -1.042l-5.638 -2.052l-5.196 -3l-4.596 -3.857l-3.857 -4.596l-3 -5.196l-2.052 -5.638l-1.042 -5.909l0 -6l1.042 -5.909l2.052 -5.638l3 -5.196l3.857 -4.596l4.596 -3.857l5.196 -3l5.638 -2.052l5.909 -1.042l6 0l5.909 1.042l5.638 2.052l5.196 3l4.596 3.857l3.857 4.596l3 5.196l2.052 5.638l-5.909 1.042l-6 0l-5.909 -1.042l-5.638 -2.052l-5.196 -3l-4.596 -3.857l-3.857 -4.596l-3 -5.196l-2.052 -5.638l-1.042 -5.909l0 -6l1.042 -5.909l2.052 -5.638l3 -5.196l3.857 -4.596l4.596 -3.857l5.196 -3l5.638 -2.052l5.909 -1.042l6 0l5.909 1.042l5.638 2.052l5.196 3l4.596 3.857l3.857 4.596l3 5.196l2.052 5.638l1.042 5.909l0 6l-1.042 5.909l-2.052 5.638l-3 5.196l-3.857 4.596l-4.596 3.857l-3 -5.196l-2.052 -5.638l-1.042 -5.909l0 -6l1.042 -5.909l2.052 -5.638l3 -5.196l3.857 -4.596l4.596 -3.857l5.196 -3l5.638 -2.052l5.909 -1.042l6 0l5.909 1.042l5.638 2.052l5.196 3l4.596 3.857l3.857 4.596l3 5.196l2.052 5.638l1.042 5.909l0 6l-1.042 5.909l-2.052 5.638l-3 5.196l-3.857 4.596l-4.596 3.857l-5.196 3l-5.638 2.052l-5.909 1.042l-6 0l-5.909 -1.042l-5.638 -2.052l-5.196 -3l3.857 -4.596l4.596 -3.857l5.196 -3l5.638 -2.052l5.909 -1.042l6 0l5.909 1.042l5.638 2.052l5.196 3l4.596 3.857l3.857 4.596l3 5.196l2.052 5.638l1.042 5.909l0 6l-1.042 5.909l-2.052 5.638l-3 5.196l-3.857 4.596l-4.596 3.857l-5.196 3l-5.638 2.052l-5.909 1.042l-6 0l-5.909 -1.042l-5.638 -2.052l-5.196 -3l-4.596 -3.857l-3.857 -4.596l-3 -5.196l-2.052 -5.638l-1.042 -5.909l0 -6l1.042 -5.909l5.638 2.052l5.196 3l4.596 3.857l3.857 4.596l3 5.196l2.052 5.638l1.042 5.909l0 6l-1.042 5.909l-2.052 5.638l-3 5.196l-3.857 4.596l-4.596 3.857l-5.196 3l-5.638 2.052l-5.909 1.042l-6 0l-5.909 -1.042l-5.638 -2.052l-5.196 -3l-4.596 -3.857l-3.857 -4.596l-3 -5.196l-2.052 -5.638l-1.042 -5.909l0 -6l1.042 -5.909l2.052 -5.638l3 -5.196l3.857 -4.596l4.596 -3.857l5.196 -3l5.638 -2.052l5.909 -1.042l0 6l-1.042 5.909l-2.052 5.638l-3 5.196l-3.857 4.596l-4.596 3.857l-5.196 3l-5.638 2.052l-5.909 1.042l-6 0l-5.909 -1.042l-5.638 -2.052l-5.196 -3l-4.596 -3.857l-3.857 -4.596l-3 -5.196l-2.052 -5.638l-1.042 -5.909l0 -6l1.042 -5.909l2.052 -5.638l3 -5.196l3.857 -4.596l4.596 -3.857l5.196 -3l5.638 -2.052l5.909 -1.042l6 0l5.909 1.042l5.638 2.052l5.196 3l4.596 3.857l3.857 4.596l3 5.196l-5.638 2.052l-5.909 1.042l-6 0l-5.909 -1.042l-5.638 -2.052l-5.196 -3l-4.596 -3.857l-3.857 -4.596l-3 -5.196l-2.052 -5.638l-1.042 -5.909l0 -6l1.042 -5.909l2.052 -5.638l3 -5.196l3.857 -4.596l4.596 -3.857l5.196 -3l5.638 -2.052l5.909 -1.042l6 0l5.909 1.042l5.638 2.052l5.196 3l4.596 3.857l3.857 4.596l3 5.196l2.052 5.638l1.042 5.909l0 6l-1.042 5.909l-2.052 5.638l-3 5.196l-3.857 4.596l-3.857 -4.596l-3 -5.196l-2.052 -5.638l-1.042 -5.909l0 -6l1.042 -5.909l2.052 -5.638l3 -5.196l3.857 -4.596l4.596 -3.857l5.196 -3l5.638 -2.052l5.909 -1.042l6 0l5.909 1.042l5.638 2.052l5.196 3l4.596 3.857l3.857 4.596l3 5.196l2.052 5.638l1.042 5.909l0 6l-1.042 5.909l-2.052 5.638l-3 5.196l-3.857 4.596l-4.596 3.857l-5.196 3l-5.638 2.052l-5.909 1.042l-6 0l-5.909 -1.042l-5.638 -2.052l3 -5.196l3.857 -4.596l4.596 -3.857l5.196 -3l5.638 -2.052l5.909 -1.042l6 0l5.909 1.042l5.638 2.052l5.196 3l4.596 3.857l3.857 4.596l3 5.196l2.052 5.638l1.042 5.909l0 6l-1.042 5.909l-2.052 5.638l-3 5.196l-3.857 4.596l-4.596 3.857l-5.196 3l-5.638 2.052l-5.909 1.042l-6 0l-5.909 -1.042l-5.638 -2.052l-5.196 -3l-4.596 -3.857l-3.857 -4.596l-3 -5.196l-2.052 -5.638l-1.042 -5.909l0 -6l5.909 1.042l5.638 2.052l5.196 3l4.596 3.857l3.857 4.596l3 5.196l2.052 5.638l1.042 5.909l0 6l-1.042 5.909l-2.052 5.638l-3 5.196l-3.857 4.596l-4.596 3.857l-5.196 3l-5.638 2.052l-5.909 1.042l-6 0l-5.909 -1.042l-5.638 -2.052l-5.196 -3l-4.596 -3.857l-3.857 -4.596l-3 -5.196l-2.052 -5.638l-1.042 -5.909l0 -6l1.042 -5.909l2.052 -5.638l3 -5.196l3.857 -4.596l4.596 -3.857l5.196 -3l5.638 -2.052l1.042 5.909l0 6l-1.042 5.909l-2.052 5.638l-3 5.196l-3.857 4.596l-4.596 3.857l-5.196 3l-5.638 2.052l-5.909 1.042l-6 0l-5.909 -1.042l-5.638 -2.052l-5.196 -3l-4.596 -3.857l-3.857 -4.596l-3 -5.196l-2.052 -5.638l-1.042 -5.909l0 -6l1.042 -5.909l2.052 -5.638l3 -5.196l3.857 -4.596l4.596 -3.857l5.196 -3l5.638 -2.052l5.909 -1.042l6 0l5.909 1.042l5.638 2.052l5.196 3l4.596 3.857l3.857 4.596l-5.196 3l-5.638 2.052l-5.909 1.042l-6 0l-5.909 -1.042l-5.638 -2.052l-5.196 -3l-4.596 -3.857l-3.857 -4.596l-3 -5.196l-2.052 -5.638l-1.042 -5.909l0 -6l1.042 -5.909l2.052 -5.638l3 -5.196l3.857 -4.596l4.596 -3.857l5.196 -3l5.638 -2.052l5.909 -1.042l6 0l5.909 1.042l5.638 2.052l5.196 3l4.596 3.857l3.857 4.596l3 5.196l2.052 5.638l1.042 5.909l0 6l-1.042 5.909l-2.052 5.638l-3 5.196l-4.596 -3.857l-3.857 -4.596l-3 -5.196l-2.052 -5.638l-1.042 -5.909l0 -6l1.042 -5.909l2.052 -5.638l3 -5.196l3.857 -4.596l4.596 -3.857l5.196 -3l5.638 -2.052l5.909 -1.042l6 0l5.909 1.042l5.638 2.052l5.196 3l4.596 3.857l3.857 4.596l3 5.196l2.052 5.638l1.042 5.909l0 6l-1.042 5.909l-2.052 5.638l-3 5.196l-3.857 4.596l-4.596 3.857l-5.196 3l-5.638 2.052l-5.909 1.042l-6 0l-5.909 -1.042l2.052 -5.638l3 -5.196l3.857 -4.596l4.596 -3.857l5.196 -3l5.638 -2.052l5.909 -1.042l6 0l5.909 1.042l5.638 2.052l5.196 3l4.596 3.857l3.857 4.596l3 5.196l2.052 5.638l1.042 5.909l0 6l-1.042 5.909l-2.052 5.638l-3 5.196l-3.857 4.596l-4.596 3.857l-5.196 3l-5.638 2.052l-5.909 1.042l-6 0l-5.909 -1.042l-5.638 -2.052l-5.196 -3l-4.596 -3.857l-3.857 -4.596l-3 -5.196l-2.052 -5.638l-1.042 -5.909"/>
</svg>
